<svg width="112" height="23" viewBox="0 0 112 23" fill="none" xmlns="http://www.w3.org/2000/svg">
<path d="M28.3209 18.9421H27.0291V18.2458H30.3762V18.9421H29.0843V22.3144H28.3209V18.9421Z" fill="#3D3937"/>
<path d="M34.6713 22.3144H33.757L32.5741 20.9554H31.8359V22.3144H31.0725V18.2458C31.7185 18.2458 32.3644 18.2542 33.002 18.2542C33.9583 18.2626 34.4616 18.9002 34.4616 19.6048C34.4616 20.1585 34.21 20.7289 33.4382 20.8799L34.6713 22.2641V22.3144ZM31.8359 18.9589V20.2592H33.002C33.4885 20.2592 33.6982 19.932 33.6982 19.6048C33.6982 19.2777 33.4801 18.9589 33.002 18.9589H31.8359Z" fill="#3D3937"/>
<path d="M38.8993 18.2542V20.5779C38.8993 21.7775 38.1611 22.3983 37.1377 22.3983C36.1645 22.3983 35.334 21.8027 35.334 20.5779V18.2542H36.0974V20.5779C36.0974 21.3078 36.5169 21.702 37.146 21.702C37.7752 21.702 38.1359 21.2742 38.1359 20.5779V18.2542H38.8993Z" fill="#3D3937"/>
<path d="M42.3891 19.2273C42.2465 18.9924 41.869 18.7743 41.4243 18.7743C40.8539 18.7743 40.5855 19.0092 40.5855 19.3112C40.5855 19.6635 41.0049 19.7642 41.4915 19.8229C42.3387 19.9236 43.1273 20.1501 43.1273 21.1148C43.1273 22.0208 42.3303 22.4067 41.4243 22.4067C40.5939 22.4067 39.9563 22.155 39.6543 21.4084L40.2919 21.0813C40.468 21.5259 40.9462 21.7272 41.4327 21.7272C41.9109 21.7272 42.3639 21.5594 42.3639 21.1148C42.3639 20.7289 41.9612 20.5779 41.4243 20.5192C40.5939 20.4185 39.8305 20.2004 39.8305 19.286C39.8305 18.4472 40.6526 18.1116 41.3992 18.1032C42.0284 18.1032 42.6911 18.2794 42.9931 18.9085L42.3891 19.2273Z" fill="#3D3937"/>
<path d="M44.9981 18.9421H43.7062V18.2458H47.0533V18.9421H45.7615V22.306H44.9981V18.9421Z" fill="#3D3937"/>
<path d="M52.4558 19.4203C52.4558 19.7307 52.3048 20.0327 51.9273 20.2004C52.4055 20.343 52.5816 20.8464 52.5816 21.1064C52.5816 22.0124 51.9021 22.306 51.0632 22.306H49.1338V18.2458H51.0632C51.8518 18.2458 52.4558 18.6065 52.4558 19.4203ZM49.8804 19.8733H51.0548C51.533 19.8733 51.6924 19.6719 51.6924 19.437C51.6924 19.2525 51.5414 18.9421 51.0548 18.9421H49.8804V19.8733ZM49.8804 21.593H51.0548C51.3652 21.593 51.8182 21.4923 51.8182 21.1064C51.8182 20.7373 51.3736 20.5528 51.0548 20.5528H49.8804V21.593Z" fill="#3D3937"/>
<path d="M56.9102 18.2458V20.5695C56.9102 21.7692 56.172 22.3899 55.1486 22.3899C54.1755 22.3899 53.345 21.7943 53.345 20.5695V18.2458H54.1084V20.5695C54.1084 21.2994 54.5278 21.6937 55.157 21.6937C55.7861 21.6937 56.1469 21.2658 56.1469 20.5695V18.2458H56.9102Z" fill="#3D3937"/>
<path d="M58.9404 18.9421H57.6485V18.2458H60.9957V18.9421H59.7038V22.306H58.9404V18.9421Z" fill="#3D3937"/>
<path d="M65.2991 22.3228H64.5022L62.8076 18.2458H63.6717L64.8964 21.4084L66.1296 18.2374H66.9853L65.2991 22.3228Z" fill="#3D3937"/>
<path d="M70.7184 22.306H67.6732V18.2374H70.7184V18.984H68.4366V19.9152H70.6345V20.6366H68.4366V21.551H70.7184V22.306Z" fill="#3D3937"/>
<path d="M75.1393 22.306H74.2249L73.0421 20.947H72.3039V22.306H71.5405V18.2374C72.1864 18.2374 72.8324 18.2458 73.4699 18.2458C74.4262 18.2542 74.9296 18.8918 74.9296 19.5964C74.9296 20.1501 74.6779 20.7205 73.9061 20.8715L75.1393 22.2557V22.306ZM72.3122 18.9505V20.2508H73.4783C73.9649 20.2508 74.1746 19.9236 74.1746 19.5964C74.1746 19.2693 73.9565 18.9505 73.4783 18.9505H72.3122Z" fill="#3D3937"/>
<path d="M76.4564 18.2374H75.693V22.2976H76.4564V18.2374Z" fill="#3D3937"/>
<path d="M77.4043 22.306V18.2458H80.3236V18.984H78.1677V20.0914H80.2062V20.796H78.1677V22.306H77.4043Z" fill="#3D3937"/>
<path d="M82.9745 19.9152L84.0483 18.2374H84.9711V18.271L83.352 20.6283V22.2976L82.5887 22.306V20.6283L81.0283 18.271V18.2374H81.9427L82.9745 19.9152Z" fill="#3D3937"/>
<path d="M102.479 0.201324H100.574V6.28327H102.479V0.201324Z" fill="#3D3937"/>
<path d="M100.574 7.34026L100.583 13.85L111.95 3.30521H109.307L102.479 9.47104V7.35704L100.574 7.34026Z" fill="#574DFC"/>
<path d="M107.52 8.75797L112 13.85H108.972L105.809 10.3183L107.52 8.75797Z" fill="#3D3937"/>
<path d="M105.423 5.19268C105.423 5.86379 104.878 6.40906 104.207 6.40906C103.536 6.40906 102.99 5.86379 102.99 5.19268C102.99 4.52157 103.536 3.97629 104.207 3.97629C104.878 3.97629 105.423 4.52157 105.423 5.19268Z" fill="#574DFC"/>
<path d="M10.2261 13.6068H7.73455V12.8686C6.946 13.5061 5.90577 13.892 4.62228 13.892C2.23144 13.892 0 11.8703 0 8.90901C0 5.94773 2.22305 3.90923 4.62228 3.90923C5.90577 3.90923 6.946 4.28673 7.73455 4.94945V0.025177H10.2261V13.6068ZM7.73455 8.90901C7.73455 7.17251 6.39233 6.08195 5.0585 6.08195C3.5485 6.08195 2.416 7.1809 2.416 8.90901C2.416 10.6455 3.5485 11.7193 5.0585 11.7193C6.40072 11.7193 7.73455 10.6455 7.73455 8.90901Z" fill="#574DFC"/>
<path d="M21.5762 8.90901C21.5762 11.8703 19.2525 13.8501 16.5009 13.8501C13.6907 13.8501 11.3669 11.8703 11.3669 8.90901C11.3669 5.94773 13.6907 3.96795 16.5009 3.96795C19.2609 3.95956 21.5762 5.93934 21.5762 8.90901ZM19.1686 8.90901C19.1686 7.15573 17.8096 6.09873 16.5093 6.09873C15.1503 6.09873 13.7913 7.15573 13.7913 8.90901C13.7913 10.6623 15.1503 11.7193 16.5093 11.7193C17.8096 11.7193 19.1686 10.6623 19.1686 8.90901Z" fill="#574DFC"/>
<path d="M31.9197 13.5984H29.4282V12.7511C28.69 13.4893 27.7085 13.8836 26.467 13.8836C24.202 13.8836 22.692 12.2646 22.692 9.92406V4.18607H25.1835V9.39556C25.1835 10.7126 25.9385 11.6018 27.0877 11.6018C28.5055 11.6018 29.4282 10.6539 29.4282 8.35534V4.18607H31.9197V13.5984Z" fill="#574DFC"/>
<path d="M43.2615 8.90061C43.2615 11.8619 41.0384 13.8836 38.6392 13.8836C37.3557 13.8836 36.3155 13.5061 35.5269 12.8686V13.6068H33.0354V0.0167847H35.5269V4.94106C36.3155 4.27834 37.3557 3.90084 38.6392 3.90084C41.03 3.90084 43.2615 5.93934 43.2615 8.90061ZM40.8455 8.90061C40.8455 7.16411 39.713 6.07356 38.203 6.07356C36.8607 6.07356 35.5269 7.1725 35.5269 8.90061C35.5269 10.6371 36.8691 11.7109 38.203 11.7109C39.713 11.7109 40.8455 10.6371 40.8455 8.90061Z" fill="#574DFC"/>
<path d="M46.8938 0.0167847H44.4023V13.6068H46.8938V0.0167847Z" fill="#574DFC"/>
<path d="M57.7155 9.55493H50.543C50.7863 10.9139 51.751 11.7444 52.9003 11.7444C53.6385 11.7444 54.5613 11.6521 55.2408 10.5029L57.4639 10.9726C56.6334 12.9356 54.9556 13.8752 52.9003 13.8836C50.241 13.8836 48.0683 11.8619 48.0683 8.90059C48.0683 5.93932 50.241 3.90082 52.9339 3.90082C55.4421 3.90082 57.6149 5.84704 57.7071 8.70765L57.7155 9.55493ZM50.6185 7.80165H55.1653C54.8465 6.59365 53.9405 6.06515 52.9422 6.06515C51.9943 6.06515 50.9205 6.63559 50.6185 7.80165Z" fill="#574DFC"/>
<path d="M66.5993 10.0834L68.4113 10.5532C67.8996 12.5749 66.0121 13.8584 63.8478 13.8584C61.1717 13.8584 58.9067 11.8786 58.9067 8.91737C58.9067 5.98965 61.1717 3.97632 63.8478 3.97632C65.9618 3.97632 67.8325 5.25982 68.4113 7.25637L66.5238 7.80165C66.1631 6.42587 65.0893 5.77993 63.8478 5.77993C62.1113 5.77993 60.8278 7.06343 60.8278 8.90898C60.8278 10.8133 62.1113 12.038 63.8478 12.038C65.0893 12.0464 66.1463 11.4424 66.5993 10.0834Z" fill="#3D3937"/>
<path d="M78.5619 7.93588V13.5984H76.5822V8.33016C76.5822 6.80339 75.6929 5.77994 74.3591 5.77994C72.6813 5.77994 71.5656 6.91244 71.5656 9.26972V13.59H69.6026V0H71.5656V5.37727C72.3206 4.47128 73.4112 3.95955 74.8121 3.95955C77.0519 3.96794 78.5619 5.59539 78.5619 7.93588Z" fill="#3D3937"/>
<path d="M89.2158 9.38715H81.6322C81.8252 11.1236 83.0835 12.1639 84.4593 12.1639C85.4995 12.1639 86.5565 11.8619 87.2108 10.5448L88.9641 10.9223C88.1923 12.8853 86.5313 13.8668 84.4509 13.8668C81.9007 13.8668 79.6776 11.9038 79.6776 8.94254C79.6776 5.96448 81.8839 3.97632 84.5264 3.97632C87.0347 3.97632 89.1151 5.89737 89.2074 8.71604L89.2158 9.38715ZM81.6909 7.98621H87.2024C86.9004 6.45943 85.8267 5.70443 84.5432 5.70443C83.31 5.70443 81.9929 6.47621 81.6909 7.98621Z" fill="#3D3937"/>
<path d="M97.6131 10.8384C96.9839 11.7612 96.0527 11.9542 95.3816 11.9542C93.6283 11.9542 92.4455 10.7294 92.4455 8.91738C92.4455 7.09699 93.6283 5.88061 95.3816 5.88061C96.3296 5.88061 97.1181 6.28327 97.6131 7.0131L97.848 7.35705L99.4167 6.29166L99.207 5.95611C98.4436 4.69777 97.0846 4.0015 95.3816 4.0015C92.4958 4.0015 90.3986 6.07355 90.3986 8.91738C90.3986 11.778 92.4958 13.85 95.3816 13.85C97.051 13.85 98.4436 13.137 99.207 11.9038L99.4167 11.5683L97.848 10.5029L97.6131 10.8384Z" fill="#3D3937"/>
<path d="M22.7423 19.9236H0V20.6031H22.7423V19.9236Z" fill="#3D3937"/>
<path d="M112 19.9068H89.2578V20.5863H112V19.9068Z" fill="#3D3937"/>
</svg>
