<svg width="78" height="78" viewBox="0 0 78 78" fill="none" xmlns="http://www.w3.org/2000/svg">
<path fill-rule="evenodd" clip-rule="evenodd" d="M38.9999 68.64C57.9543 68.64 73.3199 53.2744 73.3199 34.32C73.3199 15.3656 57.9543 0 38.9999 0C20.0455 0 4.67993 15.3656 4.67993 34.32C4.67993 44.9926 9.5515 54.5274 17.1923 60.822C17.2045 60.832 17.1936 60.8515 17.1787 60.8464C17.1695 60.8433 17.16 60.8501 17.16 60.8598V71.5042C17.16 74.4834 20.3001 76.4171 22.9605 75.076L34.9719 69.0212C35.6354 68.6867 36.3786 68.5494 37.1205 68.5894C37.7427 68.623 38.3693 68.64 38.9999 68.64Z" fill="#FC2E20"/>
<path d="M48.8134 27.6379C49.6418 26.8095 49.6418 25.4664 48.8134 24.638L48.362 24.1865C47.5336 23.3581 46.1904 23.3581 45.362 24.1865L39 30.5486L32.6379 24.1865C31.8095 23.3581 30.4664 23.3581 29.638 24.1865L29.1865 24.638C28.3581 25.4664 28.3581 26.8095 29.1865 27.6379L35.5486 34L29.1865 40.362C28.3581 41.1904 28.3581 42.5336 29.1865 43.362L29.638 43.8134C30.4664 44.6419 31.8095 44.6419 32.6379 43.8134L39 37.4514L45.362 43.8134C46.1904 44.6418 47.5336 44.6419 48.362 43.8134L48.8134 43.362C49.6419 42.5336 49.6418 41.1904 48.8134 40.362L42.4514 34L48.8134 27.6379Z" fill="white"/>
</svg>
