<svg width="95" height="83" viewBox="0 0 95 83" fill="none" xmlns="http://www.w3.org/2000/svg">
<circle cx="44.51" cy="31.5107" r="5.84297" fill="#FFE0DE"/>
<circle cx="83.0604" cy="23.1009" r="11.1227" fill="#FFE0DE"/>
<path fill-rule="evenodd" clip-rule="evenodd" d="M43.3193 42.2994C43.2063 41.7341 42.7928 41.276 42.2418 41.1061V41.1061C41.6231 40.9153 40.9507 41.1237 40.5483 41.6309L38.2358 44.5461C36.652 46.5427 34.1125 47.4867 31.574 47.2604C25.3525 46.7056 18.9305 47.203 12.5425 48.889C-17.0024 56.6871 -34.6317 86.9595 -26.8336 116.504C-19.0356 146.049 11.2368 163.678 40.7817 155.88C70.3266 148.082 87.9559 117.81 80.1578 88.2652C75.6862 71.3234 63.8248 58.2997 48.9481 51.7417C46.4705 50.6495 44.5596 48.5092 44.0293 45.854L43.3193 42.2994Z" fill="#FFE0DE"/>
<circle cx="33.9047" cy="3.89091" r="2.98683" transform="rotate(-22.0902 33.9047 3.89091)" fill="#FFE0DE"/>
</svg>
