<svg width="285" height="540" viewBox="0 0 285 540" fill="none" xmlns="http://www.w3.org/2000/svg">
<g filter="url(#filter0_d_89_4586)">
<path d="M250.483 60.7709L165.771 11.9763C161.636 9.59468 157.924 9.44945 155.26 11.0905L150.834 13.6318L152.625 13.9513C151.722 15.5923 151.213 17.6981 151.198 20.2394L150.543 256.152C150.514 265.345 156.992 276.527 165.014 281.145L249.726 329.94C252.011 331.261 254.166 331.871 256.087 331.9L255.592 333.512L260.003 330.985L260.033 330.971C262.653 329.46 264.283 326.251 264.298 321.676L264.968 85.7926C265.535 74.2184 258.504 65.3889 250.483 60.7709Z" fill="#1B1F2D"/>
<path d="M245.635 63.5736L160.923 14.779C152.902 10.161 146.395 13.8641 146.366 23.0567L145.696 258.94C145.667 268.133 152.145 279.315 160.166 283.933L244.878 332.728C252.9 337.346 259.407 333.643 259.436 324.45L260.106 88.5662C260.688 77.0211 253.657 68.1916 245.635 63.5736Z" fill="#31394C"/>
<path d="M245.067 65.9845L161.476 17.829C154.474 13.7918 148.753 17.0448 148.738 25.0755L148.069 259.667C148.04 267.698 153.717 277.5 160.734 281.537L244.34 329.693C251.342 333.73 257.063 330.477 257.092 322.461L257.762 87.8694C257.733 78.0524 252.07 70.0217 245.067 65.9845Z" fill="#1B1F2D"/>
<path d="M244.879 68.6274L234.31 62.5426C233.669 62.1651 233.13 62.441 233.043 63.1235C232.475 67.5092 228.938 69.1212 224.672 66.6669L181.8 41.9792C177.534 39.525 174.026 33.8613 173.473 28.8221C173.385 28.0379 172.876 27.1666 172.221 26.789C170.197 25.6272 165.873 23.1294 161.652 20.7042C155.712 17.277 150.879 20.0217 150.864 26.8326L150.195 260.378C150.18 267.175 154.97 275.467 160.909 278.894L244.122 326.817C250.061 330.245 254.894 327.485 254.909 320.689L255.579 87.1432C255.608 80.3323 250.818 72.0547 244.879 68.6274Z" fill="#F9F9F9"/>
<path d="M208.527 217.959L180.052 201.563C178.946 200.924 178.029 201.433 178.029 202.711C178.029 203.989 178.931 205.542 180.038 206.181L208.513 222.577C209.619 223.216 210.536 222.693 210.536 221.43C210.536 220.166 209.634 218.598 208.527 217.959Z" fill="#616362"/>
<path d="M223.173 226.396L215.705 222.098C214.598 221.459 213.696 221.967 213.681 223.245C213.667 224.523 214.569 226.077 215.69 226.716L223.158 231.014C224.265 231.653 225.167 231.131 225.182 229.853C225.196 228.575 224.279 227.035 223.173 226.396Z" fill="#616362"/>
<path d="M218.907 235.981L184.201 215.998C183.561 215.635 183.051 215.926 183.051 216.652C183.051 217.378 183.561 218.264 184.201 218.627L218.907 238.609C219.533 238.972 220.057 238.682 220.057 237.956C220.042 237.23 219.533 236.359 218.907 235.981Z" fill="#BABABA"/>
<path d="M218.878 246.408L212.487 242.734C211.861 242.371 211.337 242.661 211.337 243.402C211.337 244.128 211.847 245.014 212.473 245.377L218.864 249.051C219.49 249.414 220.014 249.123 220.014 248.397C220.014 247.657 219.504 246.771 218.878 246.408Z" fill="#BABABA"/>
<path d="M207.712 239.974L184.187 226.425C183.546 226.062 183.037 226.353 183.037 227.079C183.037 227.805 183.546 228.691 184.187 229.054L207.712 242.603C208.353 242.966 208.862 242.676 208.862 241.949C208.862 241.238 208.353 240.352 207.712 239.974Z" fill="#BABABA"/>
<path d="M221.673 242.806L196.066 228.052C195.44 227.689 194.916 227.979 194.916 228.705C194.916 229.431 195.426 230.317 196.052 230.68L221.659 245.435C222.299 245.798 222.809 245.507 222.809 244.781C222.823 244.055 222.314 243.184 221.673 242.806Z" fill="#BABABA"/>
<path d="M191.349 225.336L181.406 219.615C180.78 219.251 180.256 219.542 180.256 220.268C180.256 220.994 180.766 221.88 181.392 222.243L191.335 227.965C191.961 228.328 192.485 228.037 192.485 227.311C192.485 226.585 191.975 225.699 191.349 225.336Z" fill="#BABABA"/>
<path d="M203.039 115.984C202.748 115.81 202.457 115.665 202.165 115.534C200.055 114.547 197.885 113.777 195.993 113.864C194.377 113.937 192.936 114.677 192.237 116.246C191.858 117.088 191.669 118.134 191.742 119.324C191.757 119.47 191.771 119.615 191.786 119.789C191.64 119.658 191.494 119.557 191.349 119.47C190.737 119.121 190.097 119.063 189.587 119.237C188.408 119.644 188.015 121.183 187.811 122.708C187.578 124.523 187.608 126.484 187.782 128.531C187.87 129.548 188.015 130.594 188.204 131.639C188.277 132.075 188.35 132.496 188.423 132.932C187.098 132.423 186.05 134.558 187.142 137.346C188.146 139.902 189.02 142.705 190.17 143.359C190.228 143.388 190.286 143.417 190.344 143.446C190.49 143.489 190.636 143.518 190.767 143.504C191.698 146.728 193.154 149.879 194.974 152.653L194.959 159.231H178.014C176.296 159.289 175.146 160.553 174.913 162.63L173.472 176.077C173.472 176.077 183.619 187.114 202.558 198.02C219.256 207.634 231.689 209.609 231.689 209.609L230.32 194.52C230.116 192.197 228.981 189.612 227.278 187.593L210.565 168.235L210.58 161.657C212.414 160.989 213.884 159.536 214.831 157.387C214.962 157.547 215.093 157.692 215.253 157.823C215.311 157.866 215.369 157.91 215.428 157.939C216.578 158.592 217.451 156.806 218.47 155.412C219.562 153.916 218.572 150.663 217.291 149.589C217.437 147.323 217.378 144.942 217.218 142.502C217.058 140.106 216.942 136.867 215.267 134.311C215.18 134.181 215.093 134.05 214.991 133.934C215.238 133.701 215.413 133.382 215.486 132.917C215.69 131.465 214.729 129.693 213.462 128.56C212.938 128.096 212.385 127.718 211.832 127.384C211.701 127.312 211.57 127.239 211.439 127.166C211.497 126.934 211.541 126.673 211.541 126.382C211.526 124.727 210.478 122.766 209.153 121.517C208.644 121.038 208.12 120.646 207.61 120.355C207.13 120.08 206.664 119.891 206.198 119.746C206.183 119.644 206.169 119.542 206.14 119.426C205.965 118.831 205.514 118.163 205.106 117.683C204.466 116.943 203.752 116.391 203.039 115.984Z" fill="#574DFC"/>
<path d="M209.969 51.0264L195.178 42.5019C194.756 42.255 194.421 42.4438 194.421 42.9231C194.421 43.3878 194.756 43.9687 195.163 44.201L209.954 52.7255C210.362 52.9579 210.711 52.7836 210.711 52.3044C210.711 51.8397 210.376 51.2733 209.969 51.0264Z" fill="#31394C"/>
<path d="M215.268 53.6405C214.496 53.1903 213.87 53.5533 213.87 54.4392C213.87 55.3105 214.496 56.3852 215.268 56.8354C216.04 57.271 216.666 56.9225 216.666 56.0512C216.666 55.1653 216.04 54.0761 215.268 53.6405Z" fill="#31394C"/>
<path d="M215.268 54.0033C214.671 53.6548 214.19 53.9307 214.19 54.6132C214.19 55.2958 214.671 56.1235 215.268 56.4721C215.865 56.8061 216.345 56.5447 216.345 55.8621C216.345 55.1796 215.865 54.3518 215.268 54.0033Z" fill="#1B1F2D"/>
<path d="M215.268 54.9618C215.122 54.8747 215.021 54.9473 215.021 55.1071C215.021 55.2668 215.137 55.4556 215.268 55.5282C215.399 55.6008 215.516 55.5427 215.516 55.383C215.516 55.2232 215.399 55.0344 215.268 54.9618Z" fill="#31394C"/>
<path d="M40.4832 417.378L40.2212 325.641L77.8968 303.945L102.339 381.74L40.4832 417.378ZM80.9103 297.541L36.145 323.317L36.4362 424.377L107.857 383.25L80.9103 297.541Z" fill="#31394C"/>
<path d="M96.8653 380.259L102.354 381.755L77.911 303.945L73.6602 306.399L96.8653 380.259Z" fill="#1B1F2D"/>
<path d="M40.4685 412.701L40.4831 417.378L102.354 381.755L96.8509 380.259L40.4685 412.701Z" fill="#1B1F2D"/>
<path d="M30.6714 320.166L36.146 323.332L36.4227 424.377L30.948 421.226L30.6714 320.166Z" fill="#1B1F2D"/>
<path d="M30.6714 320.166L36.1451 323.332L80.9104 297.541L75.4367 294.389L30.6714 320.166Z" fill="#1B1F2D"/>
<path d="M189.526 502.986L189.264 411.249L226.939 389.553L251.382 467.349L189.526 502.986ZM229.938 383.163L185.173 408.94L185.464 510L256.885 468.873L229.938 383.163Z" fill="#31394C"/>
<path d="M245.894 465.867L251.382 467.363L226.94 389.568L222.689 392.007L245.894 465.867Z" fill="#1B1F2D"/>
<path d="M189.511 498.324V502.986L251.382 467.378L245.879 465.867L189.511 498.324Z" fill="#1B1F2D"/>
<path d="M179.699 405.789L185.174 408.94L185.465 510L179.991 506.834L179.699 405.789Z" fill="#1B1F2D"/>
<path d="M179.699 405.789L185.173 408.94L229.953 383.163L224.479 380.012L179.699 405.789Z" fill="#1B1F2D"/>
<path d="M262.504 366.056L259.549 366.521L100.185 274.741C97.0402 272.925 91.9595 272.925 88.8441 274.741L26.2164 311.046L23.7998 310.131V314.386V314.444C23.8289 315.606 24.615 316.782 26.1582 317.668L186.119 409.797C189.264 411.612 194.345 411.612 197.46 409.797L260.19 373.433C261.82 372.49 262.592 371.226 262.504 369.977H262.519C262.49 369.832 262.504 366.056 262.504 366.056Z" fill="#A6BFFF"/>
<path d="M197.46 409.782L260.19 373.419C261.82 372.475 262.592 371.212 262.505 369.963H262.519C262.49 369.817 262.519 366.042 262.519 366.042L259.564 366.506L237.32 353.698L191.594 399.312V411.104C193.719 411.162 195.844 410.712 197.46 409.782Z" fill="#91AAF2"/>
<path d="M260.146 362.498L100.185 270.37C97.0404 268.554 91.9597 268.554 88.8443 270.37L26.1147 306.733C22.9994 308.534 23.0139 311.482 26.1584 313.283L186.12 405.411C189.264 407.227 194.345 407.227 197.46 405.411L260.19 369.048C263.305 367.247 263.291 364.314 260.146 362.498Z" fill="#CFDEFF"/>
<path d="M47.6311 300.387C46.8159 299.966 45.5494 299.966 44.7632 300.43L34.1506 306.588C33.3353 307.053 33.3499 307.822 34.1651 308.287L49.8148 317.291C50.63 317.755 51.9402 317.755 52.7555 317.291L63.3681 311.133C64.1542 310.683 64.1688 309.957 63.4264 309.478C63.7612 309.696 63.9359 309.957 63.965 310.218L50.5572 309.304L51.5472 317.625C51.2851 317.639 51.0085 317.639 50.7465 317.596L49.7566 309.26L48.2717 309.158L48.097 308.301L33.6702 307.75C33.5974 307.59 33.5828 307.445 33.6119 307.285L48.0096 307.822L46.3792 300.082C46.8013 300.096 47.2672 300.198 47.6311 300.387ZM63.3827 309.463C63.3972 309.463 63.3972 309.478 63.4118 309.478C63.3972 309.463 63.3827 309.463 63.3827 309.463ZM47.6602 300.401C47.6457 300.401 47.6457 300.387 47.6311 300.387C47.6457 300.401 47.6602 300.401 47.6602 300.401Z" fill="white"/>
<path d="M50.5427 309.303L49.7274 309.245L50.7174 317.581C50.9794 317.625 51.256 317.639 51.518 317.61L50.5427 309.303ZM47.9659 307.822L33.5683 307.285C33.5391 307.445 33.5537 307.59 33.6265 307.75L48.0533 308.301L47.9659 307.822Z" fill="#EEF4FF"/>
<path d="M63.3391 309.434L47.6895 300.43C47.6749 300.43 47.6604 300.416 47.6458 300.416C47.6312 300.416 47.6312 300.401 47.6167 300.401C47.2527 300.213 46.7869 300.111 46.321 300.096L47.9515 307.837L48.0534 308.301L48.2281 309.158L49.713 309.26L50.5283 309.318L63.936 310.233C63.9069 309.957 63.7322 309.696 63.3974 309.492H63.3828C63.3682 309.492 63.3682 309.478 63.3537 309.478C63.3682 309.449 63.3537 309.449 63.3391 309.434Z" fill="#EEF4FF"/>
<path d="M69.875 288.537C69.0598 288.116 67.7933 288.116 67.0071 288.58L56.3945 294.723C55.5792 295.188 55.5938 295.958 56.409 296.422L72.0587 305.426C72.8739 305.891 74.1841 305.891 74.9994 305.426L85.612 299.269C86.3981 298.819 86.4127 298.092 85.6702 297.613C86.0051 297.831 86.1798 298.092 86.2089 298.354L72.8011 297.439L73.7911 305.76C73.529 305.775 73.2524 305.775 72.9904 305.731L72.0005 297.395L70.5156 297.294L70.3409 296.437L55.9141 295.885C55.8413 295.725 55.8267 295.58 55.8558 295.42L70.2535 295.958L68.623 288.217C69.0452 288.246 69.4965 288.348 69.875 288.537ZM85.6266 297.599C85.6411 297.599 85.6411 297.613 85.6557 297.613C85.6411 297.613 85.6266 297.613 85.6266 297.599ZM69.9041 288.551C69.8896 288.551 69.8896 288.537 69.875 288.537C69.8896 288.537 69.8896 288.551 69.9041 288.551Z" fill="white"/>
<path d="M72.7868 297.453L71.9716 297.395L72.9615 305.731C73.2235 305.775 73.5001 305.789 73.7622 305.76L72.7868 297.453ZM70.2101 295.972L55.8124 295.435C55.7833 295.595 55.7978 295.74 55.8706 295.9L70.2974 296.451L70.2101 295.972Z" fill="#EEF4FF"/>
<path d="M85.583 297.584L69.9334 288.58C69.9188 288.58 69.9043 288.566 69.8897 288.566C69.8751 288.566 69.8751 288.551 69.8606 288.551C69.4966 288.363 69.0308 288.261 68.5649 288.246L70.1954 295.987L70.2973 296.451L70.472 297.308L71.9569 297.41L72.7721 297.468L86.1799 298.383C86.1508 298.107 85.9906 297.845 85.6413 297.642H85.6267C85.6121 297.642 85.6121 297.628 85.5976 297.628C85.6121 297.599 85.5976 297.584 85.583 297.584Z" fill="#EEF4FF"/>
<path d="M92.1194 276.672C91.3042 276.251 90.0376 276.251 89.2515 276.716L78.6389 282.873C77.8236 283.338 77.8382 284.107 78.6534 284.572L94.3031 293.576C95.1183 294.041 96.4285 294.041 97.2438 293.576L107.856 287.419C108.643 286.968 108.657 286.242 107.915 285.763C108.249 285.981 108.424 286.242 108.453 286.504L95.0455 285.589L96.0355 293.91C95.7734 293.924 95.4968 293.924 95.2348 293.881L94.2448 285.545L92.7599 285.444L92.5853 284.587L78.1585 284.035C78.0857 283.875 78.0711 283.73 78.1002 283.57L92.4979 284.107L90.8674 276.367C91.2896 276.382 91.7409 276.483 92.1194 276.672ZM107.871 285.748C107.886 285.748 107.886 285.763 107.9 285.763C107.886 285.763 107.871 285.748 107.871 285.748ZM92.1485 276.701C92.134 276.701 92.134 276.687 92.1194 276.687C92.134 276.687 92.134 276.687 92.1485 276.701Z" fill="white"/>
<path d="M95.0309 285.603L94.2157 285.545L95.2056 293.881C95.4677 293.924 95.7443 293.939 96.0063 293.91L95.0309 285.603ZM92.4542 284.107L78.0565 283.57C78.0274 283.73 78.042 283.875 78.1148 284.035L92.5416 284.587L92.4542 284.107Z" fill="#EEF4FF"/>
<path d="M107.828 285.72L92.178 276.716C92.1635 276.716 92.1489 276.701 92.1343 276.701C92.1198 276.701 92.1198 276.687 92.1052 276.687C91.7413 276.498 91.2754 276.396 90.8096 276.382L92.44 284.122L92.542 284.587L92.7166 285.444L94.2015 285.545L95.0168 285.603L108.425 286.518C108.395 286.242 108.221 285.981 107.886 285.778H107.871C107.857 285.778 107.857 285.763 107.842 285.763C107.857 285.734 107.842 285.734 107.828 285.72Z" fill="#EEF4FF"/>
<path d="M229.953 369.658L208.611 357.372L181.97 372.809L203.312 385.109L229.953 369.658Z" fill="white"/>
<path d="M217.448 373.825L200.983 364.357L200.663 364.531L217.128 374.014L217.448 373.825Z" fill="#A6BFFF"/>
<path d="M216.065 374.624L199.615 365.156L199.294 365.33L215.745 374.813L216.065 374.624Z" fill="#A6BFFF"/>
<path d="M214.696 375.423L198.231 365.954L197.911 366.129L214.376 375.612L214.696 375.423Z" fill="#A6BFFF"/>
<path d="M213.313 376.222L196.863 366.753L196.542 366.927L212.993 376.41L213.313 376.222Z" fill="#A6BFFF"/>
<path d="M211.945 377.02L195.48 367.537L195.16 367.726L211.625 377.209L211.945 377.02Z" fill="#A6BFFF"/>
<path d="M210.562 377.819L194.112 368.336L193.791 368.525L210.242 378.008L210.562 377.819Z" fill="#A6BFFF"/>
<path d="M209.194 378.618L192.729 369.135L192.408 369.324L208.873 378.807L209.194 378.618Z" fill="#A6BFFF"/>
<path d="M207.811 379.417L191.346 369.934L191.041 370.122L207.491 379.605L207.811 379.417Z" fill="#A6BFFF"/>
<path d="M206.428 380.215L189.977 370.732L189.657 370.921L206.122 380.404L206.428 380.215Z" fill="#A6BFFF"/>
<path d="M196.499 376.193L188.638 371.662L188.318 371.851L196.179 376.367L196.499 376.193Z" fill="#A6BFFF"/>
<path d="M214.988 366.652L205.933 361.438L205.059 361.946L214.114 367.16L214.988 366.652Z" fill="#F24B4B"/>
<path d="M209.66 365.345L204.433 362.338L203.822 362.701L209.049 365.708L209.66 365.345Z" fill="#546FBF"/>
<path d="M230.39 369.048L209.048 356.747L182.407 372.184L203.749 384.485L230.39 369.048Z" fill="white"/>
<path d="M217.884 373.216L201.419 363.733L201.099 363.921L217.564 373.404L217.884 373.216Z" fill="#A6BFFF"/>
<path d="M216.501 374.014L200.051 364.531L199.731 364.72L216.181 374.203L216.501 374.014Z" fill="#A6BFFF"/>
<path d="M215.133 374.813L198.668 365.33L198.348 365.519L214.813 375.002L215.133 374.813Z" fill="#A6BFFF"/>
<path d="M213.75 375.612L197.299 366.129L196.979 366.318L213.429 375.786L213.75 375.612Z" fill="#A6BFFF"/>
<path d="M212.381 376.41L195.916 366.927L195.596 367.116L212.061 376.585L212.381 376.41Z" fill="#A6BFFF"/>
<path d="M210.998 377.209L194.548 367.726L194.228 367.915L210.678 377.384L210.998 377.209Z" fill="#A6BFFF"/>
<path d="M209.63 378.008L193.165 368.525L192.845 368.714L209.31 378.182L209.63 378.008Z" fill="#A6BFFF"/>
<path d="M208.247 378.792L191.782 369.324L191.477 369.498L207.927 378.981L208.247 378.792Z" fill="#A6BFFF"/>
<path d="M206.864 379.591L190.414 370.122L190.093 370.297L206.558 379.78L206.864 379.591Z" fill="#A6BFFF"/>
<path d="M196.936 375.568L189.074 371.037L188.754 371.226L196.615 375.757L196.936 375.568Z" fill="#A6BFFF"/>
<path d="M215.424 366.042L206.369 360.828L205.496 361.322L214.551 366.55L215.424 366.042Z" fill="#F24B4B"/>
<path d="M210.097 364.735L204.87 361.729L204.258 362.077L209.485 365.083L210.097 364.735Z" fill="#546FBF"/>
<path d="M224.508 368.51L203.167 356.225L176.526 371.662L197.868 383.962L224.508 368.51Z" fill="white"/>
<path d="M212.003 372.693L195.538 363.21L195.218 363.399L211.683 372.882L212.003 372.693Z" fill="#A6BFFF"/>
<path d="M210.62 373.492L194.17 364.009L193.85 364.197L210.3 373.68L210.62 373.492Z" fill="#A6BFFF"/>
<path d="M209.251 374.29L192.787 364.807L192.466 364.996L208.931 374.479L209.251 374.29Z" fill="#A6BFFF"/>
<path d="M207.868 375.089L191.418 365.606L191.098 365.795L207.548 375.263L207.868 375.089Z" fill="#A6BFFF"/>
<path d="M206.5 375.888L190.035 366.405L189.715 366.593L206.18 376.062L206.5 375.888Z" fill="#A6BFFF"/>
<path d="M205.117 376.672L188.667 367.203L188.332 367.392L204.797 376.861L205.117 376.672Z" fill="#A6BFFF"/>
<path d="M203.749 377.471L187.284 368.002L186.964 368.191L203.414 377.659L203.749 377.471Z" fill="#A6BFFF"/>
<path d="M202.366 378.269L185.901 368.801L185.596 368.975L202.046 378.458L202.366 378.269Z" fill="#A6BFFF"/>
<path d="M200.983 379.068L184.532 369.6L184.212 369.774L200.677 379.257L200.983 379.068Z" fill="#A6BFFF"/>
<path d="M191.055 375.045L183.193 370.515L182.873 370.703L190.734 375.234L191.055 375.045Z" fill="#A6BFFF"/>
<path d="M209.543 365.519L200.488 360.305L199.615 360.799L208.669 366.027L209.543 365.519Z" fill="#F24B4B"/>
<path d="M204.216 364.212L198.989 361.206L198.377 361.554L203.604 364.56L204.216 364.212Z" fill="#546FBF"/>
<g opacity="0.3">
<path opacity="0.3" d="M170.776 346.001L145.911 360.407C145.299 360.756 144.542 360.756 143.931 360.407L102.849 336.562C101.539 335.807 101.539 333.904 102.849 333.149L127.99 318.583C128.602 318.235 129.359 318.235 129.97 318.583L170.645 344.229C171.736 344.825 171.664 345.464 170.776 346.001Z" fill="#CCCCCC"/>
</g>
<path d="M171.256 343.852C171.256 343.852 170.048 343.968 169.64 343.75L127.932 319.513C127.349 319.179 126.636 319.179 126.054 319.513L103.082 331.915C101.48 333.033 101.815 335.371 103.067 336.082L144.091 359.71C144.673 360.044 145.387 360.044 145.969 359.71L170.994 345.202C171.591 344.839 171.401 344.215 171.256 343.852Z" fill="#1B1F2D"/>
<path d="M127.117 289.103L127.728 317.407C127.728 318.162 128.121 318.845 128.776 319.237L169.757 343.358C171.125 344.157 172.799 342.879 172.814 341.296L172.887 313.747C172.887 313.007 172.494 312.324 171.868 311.947L130.247 287.39C128.835 286.547 127.015 287.419 127.117 289.103Z" fill="#31394C"/>
<path d="M127.102 288.943L127.014 317.77C127.014 318.525 127.407 319.208 128.063 319.6L169.028 343.445C170.397 344.244 172.1 343.256 172.1 341.659L172.173 314.096C172.173 313.355 171.78 312.673 171.154 312.295L129.387 287.665C128.368 287.056 127.102 287.767 127.102 288.943Z" fill="#1B1F2D"/>
<path d="M128.66 289.147L128.573 317.392L170.412 341.528L170.499 313.573L128.66 289.147Z" fill="#546FBF"/>
<g opacity="0.03">
<g opacity="0.03">
<path opacity="0.03" d="M133.959 292.24L128.646 294.694L128.573 314.982L153.35 303.553L133.959 292.24Z" fill="white"/>
</g>
<g opacity="0.03">
<path opacity="0.03" d="M156.582 305.441L129.504 317.93L134.497 320.805L161.546 308.345L156.582 305.441Z" fill="white"/>
</g>
<g opacity="0.03">
<path opacity="0.03" d="M164.778 310.233L137.744 322.678L157.266 333.933L170.455 327.848L170.499 313.573L164.778 310.233Z" fill="white"/>
</g>
<g opacity="0.03">
<path opacity="0.03" d="M165.506 338.696L170.427 336.431L170.441 331.232L160.513 335.807L165.506 338.696Z" fill="white"/>
</g>
</g>
<path d="M171.067 344.433L145.911 358.911C145.329 359.245 144.615 359.245 144.033 358.911L103.082 335.168C101.83 334.441 101.83 332.641 103.082 331.915L126.112 318.656C126.695 318.322 127.408 318.322 128.005 318.656L171.067 343.634C171.373 343.823 171.373 344.258 171.067 344.433Z" fill="#31394C"/>
<path d="M136.623 345.391L130.334 349.109C130.174 349.196 129.984 349.196 129.824 349.109L118.819 342.777C118.484 342.588 118.484 342.095 118.819 341.906L124.845 338.508C125.006 338.421 125.195 338.421 125.355 338.508L136.623 345.188C136.71 345.231 136.71 345.348 136.623 345.391Z" fill="#CFDEFF"/>
<path d="M126.767 322.069L128.179 322.896C128.354 322.998 128.631 322.998 128.791 322.896L129.49 322.475C129.665 322.374 129.665 322.214 129.49 322.112L128.078 321.299C127.903 321.197 127.641 321.212 127.466 321.299L126.767 321.706C126.607 321.807 126.607 321.981 126.767 322.069Z" fill="#CFDEFF"/>
<path d="M129.257 323.521L130.683 324.349C130.858 324.45 131.135 324.45 131.31 324.349L132.008 323.928C132.183 323.826 132.183 323.666 132.008 323.564L130.582 322.737C130.407 322.635 130.13 322.635 129.955 322.737L129.257 323.158C129.082 323.26 129.082 323.419 129.257 323.521Z" fill="#CFDEFF"/>
<path d="M131.775 324.987L133.217 325.83C133.391 325.931 133.668 325.931 133.843 325.83L134.556 325.409C134.731 325.307 134.731 325.133 134.556 325.046L133.115 324.203C132.94 324.102 132.663 324.102 132.489 324.203L131.79 324.624C131.601 324.726 131.601 324.886 131.775 324.987Z" fill="#CFDEFF"/>
<path d="M134.323 326.483L135.779 327.34C135.954 327.442 136.23 327.442 136.405 327.34L137.118 326.919C137.293 326.817 137.293 326.643 137.118 326.541L135.648 325.699C135.473 325.598 135.196 325.598 135.022 325.699L134.308 326.12C134.148 326.207 134.148 326.382 134.323 326.483Z" fill="#CFDEFF"/>
<path d="M136.899 327.979L138.385 328.836C138.559 328.938 138.851 328.938 139.025 328.836L139.739 328.4C139.913 328.299 139.913 328.124 139.739 328.023L138.254 327.166C138.079 327.064 137.788 327.064 137.613 327.166L136.899 327.587C136.71 327.703 136.725 327.877 136.899 327.979Z" fill="#CFDEFF"/>
<path d="M139.505 329.504L141.005 330.375C141.18 330.477 141.471 330.477 141.646 330.375L142.359 329.94C142.534 329.838 142.534 329.664 142.345 329.562L140.845 328.691C140.67 328.589 140.379 328.589 140.204 328.691L139.491 329.126C139.331 329.228 139.331 329.402 139.505 329.504Z" fill="#CFDEFF"/>
<path d="M142.14 331.043L143.655 331.929C143.829 332.031 144.12 332.031 144.295 331.929L145.009 331.494C145.183 331.392 145.183 331.218 144.994 331.101L143.48 330.216C143.305 330.114 143.014 330.114 142.839 330.216L142.126 330.651C141.966 330.767 141.966 330.942 142.14 331.043Z" fill="#CFDEFF"/>
<path d="M144.819 332.597L146.348 333.497C146.537 333.599 146.828 333.599 147.003 333.497L147.717 333.047C147.891 332.946 147.891 332.757 147.702 332.655L146.159 331.769C145.969 331.668 145.678 331.668 145.503 331.769L144.79 332.205C144.63 332.321 144.644 332.495 144.819 332.597Z" fill="#CFDEFF"/>
<path d="M147.527 334.18L149.085 335.08C149.274 335.182 149.565 335.182 149.74 335.08L150.453 334.63C150.628 334.514 150.613 334.34 150.439 334.238L148.881 333.338C148.692 333.236 148.4 333.236 148.226 333.338L147.512 333.788C147.337 333.904 147.352 334.078 147.527 334.18Z" fill="#CFDEFF"/>
<path d="M150.278 335.778L151.85 336.692C152.04 336.809 152.331 336.809 152.52 336.692L153.248 336.242C153.423 336.126 153.408 335.952 153.219 335.85L151.647 334.935C151.457 334.834 151.166 334.834 150.991 334.935L150.278 335.385C150.074 335.502 150.089 335.676 150.278 335.778Z" fill="#CFDEFF"/>
<path d="M153.059 337.404L154.66 338.333C154.849 338.45 155.155 338.45 155.33 338.333L156.058 337.883C156.233 337.767 156.218 337.593 156.029 337.477L154.427 336.547C154.238 336.431 153.947 336.431 153.757 336.547L153.029 336.997C152.855 337.114 152.855 337.288 153.059 337.404Z" fill="#CFDEFF"/>
<path d="M155.868 339.045L157.484 339.989C157.674 340.105 157.979 340.105 158.154 339.989L158.882 339.524C159.057 339.408 159.042 339.234 158.853 339.118L157.237 338.174C157.047 338.058 156.742 338.058 156.567 338.174L155.839 338.624C155.664 338.755 155.679 338.929 155.868 339.045Z" fill="#CFDEFF"/>
<path d="M158.722 340.715L160.353 341.674C160.542 341.79 160.848 341.79 161.037 341.674L161.765 341.209C161.94 341.093 161.925 340.904 161.736 340.802L160.09 339.858C159.901 339.742 159.595 339.742 159.421 339.858L158.693 340.323C158.503 340.41 158.518 340.599 158.722 340.715Z" fill="#CFDEFF"/>
<path d="M164.633 342.472L162.973 341.514C162.769 341.398 162.478 341.398 162.288 341.514L161.56 341.979C161.386 342.095 161.4 342.284 161.59 342.4L163.249 343.373C163.453 343.489 163.759 343.489 163.934 343.373L164.662 342.908C164.851 342.777 164.836 342.589 164.633 342.472Z" fill="#CFDEFF"/>
<path d="M124.467 323.521L125.763 324.291C125.967 324.421 126.316 324.407 126.534 324.291L127.816 323.535C128.034 323.405 128.034 323.201 127.83 323.085L126.534 322.33C126.331 322.214 125.981 322.214 125.763 322.345L124.496 323.1C124.263 323.187 124.263 323.39 124.467 323.521Z" fill="#CFDEFF"/>
<path d="M130.232 324.465L128.922 323.695C128.704 323.564 128.369 323.579 128.15 323.71L126.869 324.465C126.651 324.595 126.651 324.799 126.854 324.929L128.165 325.699C128.383 325.83 128.733 325.815 128.937 325.699L130.218 324.929C130.436 324.799 130.436 324.595 130.232 324.465Z" fill="#CFDEFF"/>
<path d="M132.664 325.888L131.339 325.118C131.121 324.988 130.771 325.002 130.553 325.118L129.271 325.888C129.053 326.019 129.053 326.222 129.271 326.353L130.596 327.137C130.815 327.268 131.164 327.268 131.383 327.137L132.664 326.367C132.868 326.222 132.868 326.019 132.664 325.888Z" fill="#CFDEFF"/>
<path d="M125.675 327.064L126.986 327.848C127.204 327.979 127.554 327.979 127.772 327.848L129.068 327.079C129.286 326.948 129.286 326.745 129.068 326.614L127.757 325.844C127.539 325.714 127.19 325.728 126.986 325.844L125.69 326.6C125.471 326.73 125.457 326.948 125.675 327.064Z" fill="#CFDEFF"/>
<path d="M122.079 324.93L124.482 326.367C124.686 326.498 125.035 326.483 125.253 326.367L126.535 325.598C126.753 325.467 126.753 325.264 126.549 325.133L124.132 323.71C123.929 323.579 123.579 323.593 123.361 323.724L122.079 324.479C121.89 324.595 121.876 324.799 122.079 324.93Z" fill="#CFDEFF"/>
<path d="M131.499 328.052L130.174 327.268C129.956 327.137 129.606 327.137 129.388 327.268L128.092 328.037C127.874 328.168 127.874 328.371 128.077 328.502L129.402 329.301C129.621 329.431 129.97 329.431 130.189 329.301L131.484 328.516C131.717 328.386 131.717 328.182 131.499 328.052Z" fill="#CFDEFF"/>
<path d="M133.959 329.504L132.62 328.705C132.402 328.575 132.052 328.575 131.834 328.705L130.538 329.489C130.319 329.62 130.319 329.838 130.538 329.969L131.877 330.767C132.096 330.898 132.445 330.898 132.678 330.767L133.974 329.983C134.178 329.852 134.178 329.635 133.959 329.504Z" fill="#CFDEFF"/>
<path d="M136.449 330.985L135.08 330.187C134.861 330.056 134.497 330.056 134.279 330.187L132.998 330.956C132.779 331.087 132.779 331.305 132.998 331.435L134.352 332.249C134.57 332.379 134.934 332.379 135.153 332.249L136.449 331.464C136.682 331.319 136.682 331.116 136.449 330.985Z" fill="#CFDEFF"/>
<path d="M138.982 332.466L137.599 331.653C137.38 331.523 137.016 331.523 136.798 331.653L135.502 332.452C135.284 332.583 135.284 332.8 135.502 332.931L136.871 333.759C137.089 333.89 137.453 333.89 137.671 333.759L138.982 332.96C139.2 332.815 139.2 332.597 138.982 332.466Z" fill="#CFDEFF"/>
<path d="M141.529 333.977L140.132 333.149C139.913 333.018 139.549 333.018 139.331 333.149L138.02 333.948C137.802 334.078 137.802 334.296 138.02 334.441L139.418 335.269C139.651 335.4 140.015 335.4 140.234 335.269L141.544 334.471C141.762 334.325 141.762 334.107 141.529 333.977Z" fill="#CFDEFF"/>
<path d="M144.121 335.502L142.708 334.674C142.475 334.543 142.111 334.543 141.893 334.674L140.582 335.487C140.364 335.618 140.364 335.85 140.597 335.981L142.009 336.823C142.242 336.954 142.606 336.954 142.825 336.823L144.135 336.01C144.354 335.865 144.339 335.647 144.121 335.502Z" fill="#CFDEFF"/>
<path d="M146.726 337.055L145.3 336.213C145.067 336.082 144.703 336.082 144.484 336.213L143.174 337.026C142.955 337.157 142.955 337.389 143.188 337.52L144.615 338.377C144.848 338.522 145.212 338.522 145.445 338.377L146.756 337.564C146.974 337.419 146.959 337.186 146.726 337.055Z" fill="#CFDEFF"/>
<path d="M145.809 339.089L147.25 339.945C147.483 340.091 147.862 340.091 148.08 339.945L149.405 339.118C149.623 338.972 149.623 338.755 149.376 338.609L147.934 337.752C147.701 337.607 147.337 337.622 147.104 337.752L145.794 338.58C145.561 338.725 145.576 338.943 145.809 339.089Z" fill="#CFDEFF"/>
<path d="M152.084 340.715C152.302 340.57 152.302 340.352 152.055 340.207L150.584 339.336C150.351 339.19 149.973 339.19 149.754 339.336L148.429 340.163C148.211 340.309 148.211 340.526 148.444 340.672L149.9 341.543C150.133 341.688 150.511 341.688 150.744 341.543L152.084 340.715Z" fill="#CFDEFF"/>
<path d="M154.806 342.327C155.024 342.182 155.01 341.95 154.777 341.804L153.292 340.933C153.059 340.788 152.68 340.788 152.447 340.933L151.122 341.775C150.904 341.92 150.904 342.153 151.151 342.284L152.637 343.169C152.884 343.315 153.263 343.315 153.481 343.169L154.806 342.327Z" fill="#CFDEFF"/>
<path d="M153.874 343.91L155.373 344.81C155.621 344.956 156 344.956 156.218 344.81L157.557 343.954C157.776 343.808 157.761 343.576 157.528 343.431L156.029 342.545C155.781 342.4 155.403 342.4 155.184 342.545L153.859 343.387C153.612 343.532 153.626 343.765 153.874 343.91Z" fill="#CFDEFF"/>
<path d="M123.885 328.4C123.666 328.531 123.652 328.734 123.87 328.865L125.181 329.664C125.399 329.794 125.748 329.794 125.967 329.664L127.263 328.894C127.481 328.763 127.481 328.56 127.277 328.429L125.967 327.645C125.748 327.514 125.399 327.514 125.181 327.645L123.885 328.4Z" fill="#CFDEFF"/>
<path d="M119.677 326.338L122.72 328.182C122.924 328.313 123.274 328.313 123.507 328.182L124.803 327.413C125.021 327.282 125.021 327.079 124.817 326.948L121.76 325.118C121.556 324.988 121.206 325.002 120.988 325.118L119.707 325.873C119.488 326.004 119.474 326.222 119.677 326.338Z" fill="#CFDEFF"/>
<path d="M126.301 329.853C126.083 329.983 126.083 330.201 126.287 330.332L127.612 331.13C127.83 331.261 128.18 331.261 128.398 331.13L129.694 330.346C129.912 330.216 129.912 329.998 129.694 329.867L128.369 329.068C128.151 328.938 127.801 328.938 127.583 329.068L126.301 329.853Z" fill="#CFDEFF"/>
<path d="M128.733 331.798L130.072 332.612C130.291 332.742 130.655 332.742 130.873 332.612L132.183 331.828C132.402 331.697 132.402 331.479 132.183 331.348L130.844 330.55C130.625 330.419 130.276 330.419 130.058 330.55L128.762 331.334C128.514 331.464 128.514 331.668 128.733 331.798Z" fill="#CFDEFF"/>
<path d="M131.208 333.294L132.562 334.122C132.78 334.253 133.144 334.253 133.363 334.122L134.673 333.323C134.891 333.193 134.891 332.975 134.673 332.844L133.304 332.031C133.086 331.9 132.722 331.9 132.504 332.031L131.193 332.815C130.989 332.946 130.975 333.164 131.208 333.294Z" fill="#CFDEFF"/>
<path d="M133.697 334.805L135.065 335.632C135.284 335.763 135.648 335.763 135.881 335.632L137.191 334.834C137.41 334.703 137.41 334.485 137.191 334.34L135.808 333.512C135.59 333.381 135.226 333.381 135.007 333.512L133.697 334.311C133.478 334.456 133.478 334.674 133.697 334.805Z" fill="#CFDEFF"/>
<path d="M136.23 336.344L137.628 337.186C137.861 337.317 138.225 337.317 138.443 337.186L139.768 336.373C139.986 336.242 139.987 336.01 139.754 335.879L138.356 335.051C138.137 334.921 137.773 334.921 137.54 335.051L136.23 335.85C136.012 335.981 136.012 336.199 136.23 336.344Z" fill="#CFDEFF"/>
<path d="M138.792 337.883L140.204 338.74C140.437 338.885 140.801 338.885 141.02 338.74L142.345 337.927C142.563 337.782 142.563 337.564 142.33 337.433L140.918 336.591C140.685 336.46 140.321 336.46 140.102 336.591L138.778 337.404C138.559 337.52 138.559 337.753 138.792 337.883Z" fill="#CFDEFF"/>
<path d="M141.383 339.452L142.81 340.308C143.043 340.454 143.407 340.454 143.64 340.308L144.965 339.481C145.183 339.335 145.183 339.118 144.95 338.972L143.524 338.116C143.291 337.97 142.927 337.985 142.708 338.116L141.383 338.929C141.15 339.089 141.15 339.306 141.383 339.452Z" fill="#CFDEFF"/>
<path d="M144.004 341.035L145.445 341.906C145.678 342.051 146.057 342.051 146.275 341.906L147.6 341.078C147.819 340.933 147.819 340.715 147.586 340.57L146.144 339.699C145.911 339.553 145.533 339.553 145.314 339.699L143.989 340.526C143.771 340.671 143.771 340.889 144.004 341.035Z" fill="#CFDEFF"/>
<path d="M146.668 342.647L148.124 343.532C148.357 343.678 148.735 343.678 148.968 343.532L150.308 342.69C150.526 342.545 150.526 342.313 150.279 342.167L148.808 341.296C148.575 341.151 148.197 341.151 147.978 341.296L146.653 342.124C146.42 342.269 146.435 342.501 146.668 342.647Z" fill="#CFDEFF"/>
<path d="M151.676 345.159L153.015 344.302C153.248 344.157 153.234 343.925 152.986 343.779L151.501 342.893C151.268 342.748 150.89 342.748 150.657 342.893L149.317 343.736C149.084 343.881 149.099 344.113 149.346 344.259L150.831 345.159C151.079 345.304 151.457 345.304 151.676 345.159Z" fill="#CFDEFF"/>
<path d="M157.804 346.669L154.267 344.549C154.019 344.404 153.641 344.404 153.422 344.549L152.083 345.406C151.85 345.551 151.865 345.783 152.112 345.929L155.635 348.063C155.883 348.209 156.261 348.209 156.494 348.063L157.833 347.207C158.066 347.061 158.052 346.814 157.804 346.669Z" fill="#CFDEFF"/>
<path d="M122.706 331.087L124.016 331.886C124.234 332.016 124.584 332.016 124.802 331.886L126.113 331.101C126.331 330.971 126.331 330.753 126.127 330.622L124.802 329.823C124.584 329.693 124.234 329.693 124.016 329.823L122.706 330.608C122.502 330.738 122.487 330.956 122.706 331.087Z" fill="#CFDEFF"/>
<path d="M118.281 328.88L116.737 327.936C116.606 327.848 116.373 327.848 116.228 327.936L114.32 329.068C114.175 329.155 114.16 329.286 114.306 329.373L115.834 330.317C115.965 330.404 116.198 330.404 116.344 330.317L118.266 329.184C118.412 329.097 118.412 328.967 118.281 328.88Z" fill="#CFDEFF"/>
<path d="M120.669 330.332L119.111 329.373C118.98 329.286 118.747 329.286 118.601 329.373L116.679 330.506C116.533 330.593 116.519 330.738 116.664 330.811L118.208 331.769C118.353 331.857 118.572 331.857 118.717 331.769L120.639 330.622C120.8 330.564 120.8 330.419 120.669 330.332Z" fill="#CFDEFF"/>
<path d="M123.07 331.813L121.498 330.855C121.352 330.767 121.134 330.767 120.988 330.855L119.066 332.002C118.921 332.089 118.921 332.234 119.052 332.321L120.624 333.294C120.77 333.381 121.003 333.381 121.148 333.294L123.085 332.132C123.201 332.031 123.216 331.9 123.07 331.813Z" fill="#CFDEFF"/>
<path d="M126.069 333.643L123.914 332.321C123.769 332.234 123.536 332.234 123.39 332.321L121.454 333.483C121.308 333.57 121.308 333.715 121.439 333.802L123.579 335.139C123.725 335.226 123.958 335.226 124.104 335.139L126.04 333.962C126.215 333.875 126.215 333.73 126.069 333.643Z" fill="#CFDEFF"/>
<path d="M142.024 343.416L139.695 341.993C139.549 341.906 139.301 341.906 139.156 341.993L137.19 343.213C137.045 343.3 137.045 343.46 137.19 343.547L139.505 344.985C139.665 345.086 139.898 345.086 140.059 344.985L142.039 343.75C142.184 343.663 142.184 343.518 142.024 343.416Z" fill="#CFDEFF"/>
<path d="M144.703 345.057L142.985 344.012C142.825 343.91 142.577 343.91 142.432 344.012L140.451 345.246C140.306 345.333 140.306 345.493 140.451 345.595L142.17 346.655C142.33 346.756 142.577 346.756 142.723 346.655L144.703 345.406C144.863 345.319 144.863 345.159 144.703 345.057Z" fill="#CFDEFF"/>
<path d="M146.173 347.54L144.441 346.466C144.281 346.364 144.033 346.364 143.887 346.466L143.159 346.916C143.014 347.018 143.014 347.163 143.174 347.265L144.907 348.339C145.067 348.441 145.314 348.441 145.46 348.339L146.188 347.875C146.334 347.787 146.334 347.628 146.173 347.54Z" fill="#CFDEFF"/>
<path d="M151.676 350.924L149.9 349.835C149.74 349.733 149.492 349.733 149.332 349.835L148.604 350.3C148.458 350.401 148.458 350.561 148.619 350.648L150.395 351.752C150.555 351.854 150.817 351.854 150.963 351.752L151.691 351.287C151.851 351.186 151.836 351.026 151.676 350.924Z" fill="#CFDEFF"/>
<path d="M148.91 349.225L147.148 348.136C146.988 348.034 146.741 348.034 146.595 348.136L145.867 348.601C145.721 348.702 145.721 348.848 145.882 348.949L147.643 350.038C147.803 350.14 148.051 350.14 148.211 350.038L148.939 349.574C149.07 349.472 149.07 349.312 148.91 349.225Z" fill="#CFDEFF"/>
<path d="M147.294 348.049L149.056 349.138C149.216 349.24 149.463 349.24 149.624 349.138L150.352 348.673C150.497 348.572 150.497 348.426 150.337 348.325L148.575 347.25C148.415 347.148 148.168 347.148 148.022 347.25L147.308 347.715C147.119 347.787 147.134 347.947 147.294 348.049Z" fill="#CFDEFF"/>
<path d="M138.675 341.369L126.927 334.166C126.782 334.078 126.549 334.078 126.403 334.166L124.467 335.342C124.321 335.429 124.321 335.574 124.452 335.661L136.172 342.922C136.317 343.01 136.565 343.01 136.71 342.922L138.675 341.703C138.821 341.601 138.821 341.456 138.675 341.369Z" fill="#CFDEFF"/>
<path d="M117.275 327.761L121.454 330.317C121.672 330.448 122.021 330.448 122.24 330.317L123.55 329.533C123.768 329.402 123.783 329.185 123.564 329.068L119.372 326.542C119.168 326.411 118.819 326.425 118.6 326.542L117.305 327.311C117.072 327.427 117.057 327.645 117.275 327.761Z" fill="#CFDEFF"/>
<path d="M125.122 332.568L126.447 333.381C126.666 333.512 127.015 333.512 127.248 333.381L128.558 332.597C128.777 332.466 128.777 332.249 128.573 332.118L127.234 331.305C127.015 331.174 126.666 331.174 126.447 331.305L125.137 332.089C124.918 332.22 124.904 332.437 125.122 332.568Z" fill="#CFDEFF"/>
<path d="M127.568 334.064L128.922 334.892C129.141 335.022 129.505 335.022 129.723 334.892L131.033 334.093C131.252 333.962 131.252 333.744 131.033 333.614L129.679 332.8C129.461 332.67 129.111 332.67 128.879 332.8L127.568 333.599C127.35 333.715 127.35 333.933 127.568 334.064Z" fill="#CFDEFF"/>
<path d="M130.043 335.574L131.411 336.402C131.63 336.533 131.994 336.533 132.212 336.402L133.537 335.603C133.756 335.473 133.756 335.255 133.537 335.11L132.168 334.282C131.95 334.151 131.586 334.151 131.368 334.282L130.057 335.081C129.824 335.226 129.824 335.444 130.043 335.574Z" fill="#CFDEFF"/>
<path d="M132.561 337.114L133.945 337.956C134.163 338.087 134.527 338.087 134.76 337.956L136.085 337.143C136.303 337.012 136.303 336.78 136.085 336.649L134.702 335.807C134.483 335.676 134.119 335.676 133.886 335.807L132.561 336.62C132.328 336.751 132.328 336.968 132.561 337.114Z" fill="#CFDEFF"/>
<path d="M135.094 338.667L136.492 339.524C136.725 339.669 137.089 339.669 137.307 339.524L138.632 338.711C138.851 338.566 138.851 338.348 138.632 338.217L137.235 337.375C137.002 337.244 136.638 337.244 136.419 337.375L135.094 338.188C134.876 338.304 134.876 338.522 135.094 338.667Z" fill="#CFDEFF"/>
<path d="M137.671 340.236L139.083 341.093C139.316 341.238 139.68 341.238 139.913 341.093L141.238 340.265C141.457 340.12 141.457 339.902 141.224 339.757L139.811 338.9C139.578 338.755 139.214 338.755 138.996 338.9L137.671 339.728C137.438 339.873 137.438 340.091 137.671 340.236Z" fill="#CFDEFF"/>
<path d="M140.262 341.819L141.689 342.69C141.922 342.835 142.301 342.835 142.519 342.69L143.859 341.848C144.077 341.703 144.077 341.485 143.844 341.34L142.403 340.468C142.17 340.323 141.806 340.323 141.573 340.468L140.233 341.296C140.029 341.456 140.044 341.674 140.262 341.819Z" fill="#CFDEFF"/>
<path d="M142.897 343.431L144.339 344.317C144.572 344.462 144.95 344.462 145.183 344.317L146.523 343.474C146.756 343.329 146.741 343.097 146.508 342.951L145.052 342.08C144.819 341.935 144.441 341.935 144.222 342.08L142.883 342.922C142.664 343.053 142.664 343.286 142.897 343.431Z" fill="#CFDEFF"/>
<path d="M149.201 344.593L147.731 343.707C147.498 343.561 147.119 343.561 146.886 343.707L145.547 344.549C145.314 344.694 145.328 344.927 145.561 345.072L147.032 345.972C147.265 346.117 147.643 346.117 147.876 345.972L149.216 345.115C149.449 344.97 149.434 344.738 149.201 344.593Z" fill="#CFDEFF"/>
<path d="M155.359 348.31L150.424 345.333C150.177 345.188 149.798 345.188 149.58 345.333L148.24 346.19C148.007 346.335 148.022 346.567 148.255 346.713L153.175 349.719C153.423 349.864 153.801 349.864 154.034 349.719L155.388 348.847C155.621 348.702 155.607 348.47 155.359 348.31Z" fill="#CFDEFF"/>
<path d="M160.295 345.072L158.78 344.171C158.533 344.026 158.154 344.026 157.921 344.171L156.582 345.028C156.349 345.173 156.378 345.406 156.611 345.551L158.125 346.451C158.373 346.597 158.751 346.597 158.984 346.451L160.324 345.595C160.557 345.449 160.542 345.217 160.295 345.072Z" fill="#CFDEFF"/>
<path d="M135.124 327.326L133.784 326.541C133.566 326.411 133.216 326.411 132.998 326.541L131.717 327.311C131.498 327.442 131.498 327.645 131.717 327.776L133.056 328.56C133.275 328.691 133.624 328.691 133.843 328.56L135.124 327.79C135.342 327.66 135.342 327.456 135.124 327.326Z" fill="#CFDEFF"/>
<path d="M137.614 328.778L136.26 327.979C136.041 327.848 135.692 327.848 135.473 327.979L134.177 328.749C133.959 328.879 133.959 329.097 134.177 329.228L135.532 330.027C135.75 330.157 136.114 330.157 136.332 330.027L137.628 329.243C137.832 329.126 137.832 328.908 137.614 328.778Z" fill="#CFDEFF"/>
<path d="M140.132 330.259L138.763 329.46C138.545 329.33 138.181 329.33 137.962 329.46L136.666 330.245C136.448 330.375 136.448 330.593 136.666 330.724L138.035 331.537C138.254 331.668 138.618 331.668 138.836 331.537L140.132 330.753C140.35 330.593 140.35 330.39 140.132 330.259Z" fill="#CFDEFF"/>
<path d="M142.679 331.74L141.296 330.927C141.078 330.796 140.714 330.796 140.495 330.927L139.199 331.711C138.981 331.842 138.981 332.06 139.214 332.191L140.597 333.004C140.83 333.135 141.18 333.135 141.413 333.004L142.708 332.205C142.912 332.089 142.912 331.871 142.679 331.74Z" fill="#CFDEFF"/>
<path d="M145.256 333.251L143.844 332.423C143.611 332.292 143.261 332.292 143.028 332.423L141.732 333.222C141.514 333.352 141.514 333.57 141.747 333.715L143.145 334.543C143.378 334.674 143.742 334.674 143.96 334.543L145.27 333.744C145.503 333.599 145.489 333.381 145.256 333.251Z" fill="#CFDEFF"/>
<path d="M147.877 334.776L146.45 333.948C146.217 333.817 145.853 333.817 145.634 333.948L144.324 334.746C144.105 334.877 144.105 335.11 144.338 335.24L145.765 336.083C145.998 336.213 146.362 336.213 146.581 336.083L147.891 335.269C148.11 335.139 148.11 334.906 147.877 334.776Z" fill="#CFDEFF"/>
<path d="M150.511 336.315L149.07 335.473C148.837 335.342 148.473 335.342 148.254 335.473L146.944 336.286C146.726 336.417 146.726 336.649 146.959 336.78L148.4 337.622C148.633 337.767 149.012 337.753 149.23 337.622L150.54 336.809C150.759 336.678 150.744 336.46 150.511 336.315Z" fill="#CFDEFF"/>
<path d="M153.191 337.883L151.735 337.026C151.502 336.896 151.123 336.896 150.905 337.026L149.594 337.84C149.376 337.985 149.376 338.203 149.623 338.348L151.079 339.205C151.312 339.35 151.691 339.35 151.909 339.205L153.22 338.377C153.438 338.246 153.424 338.028 153.191 337.883Z" fill="#CFDEFF"/>
<path d="M153.772 340.817C154.005 340.962 154.383 340.962 154.616 340.817L155.941 339.989C156.16 339.844 156.145 339.626 155.912 339.481L154.442 338.624C154.209 338.479 153.83 338.479 153.612 338.624L152.301 339.452C152.083 339.597 152.097 339.815 152.33 339.96L153.772 340.817Z" fill="#CFDEFF"/>
<path d="M158.649 341.078L157.15 340.207C156.902 340.062 156.538 340.062 156.305 340.207L154.98 341.035C154.762 341.18 154.776 341.412 155.009 341.543L156.509 342.429C156.757 342.574 157.135 342.574 157.354 342.429L158.679 341.586C158.912 341.441 158.882 341.209 158.649 341.078Z" fill="#CFDEFF"/>
<path d="M163.002 343.62L159.814 341.761C159.654 341.674 159.421 341.674 159.275 341.761L157.659 342.792C157.513 342.879 157.528 343.024 157.688 343.126L160.862 344.999C161.022 345.086 161.27 345.086 161.415 344.999L163.046 343.954C163.177 343.852 163.163 343.707 163.002 343.62Z" fill="#CFDEFF"/>
<path d="M160.163 454.641C155.941 455.89 152.025 458.199 147.73 459.259C143.96 460.479 140.131 461.394 136.303 462.382C133.871 463.021 131.44 463.819 129.402 465.33C128.485 466.012 128.645 467.435 128.733 468.437C128.878 470.108 131.12 470.935 132.459 471.385C134.323 472.01 136.317 472.286 138.268 471.995C140.903 471.603 143.014 470.267 145.226 468.888C147.25 467.624 149.317 466.419 151.457 465.359C153.539 464.328 155.737 463.616 157.863 462.658C159.886 461.743 161.415 460.334 161.619 458.04C161.677 457.444 161.721 456.849 161.633 456.253C161.546 455.687 161.313 455.135 160.905 454.743C160.818 454.656 160.716 454.583 160.585 454.569C160.483 454.554 160.396 454.583 160.308 454.612C160.25 454.612 160.206 454.627 160.163 454.641Z" fill="#31394C"/>
<path d="M155.388 451.272C154.718 451.229 154.034 451.243 153.364 451.287C151.719 451.403 150.074 451.679 148.429 451.839C146.668 452.013 144.979 451.853 143.217 451.693C142.679 451.635 142.126 451.592 141.587 451.592C137.19 451.505 132.736 454.336 130.581 458.127C130.567 458.127 130.552 458.112 130.538 458.112C128.732 458.867 129.46 461.336 129.3 462.846C129.184 463.921 128.674 465.025 128.761 466.114C128.834 467 129.46 467.581 130.144 468.074C132.779 469.919 136.39 470.616 139.52 469.73C141.951 469.047 144.004 467.595 146.187 466.361C148.895 464.836 151.646 463.268 154.543 462.12C156.043 461.525 157.644 461.06 158.998 460.145C160.76 458.969 162.128 456.921 161.182 454.801C160.104 452.303 157.848 451.432 155.388 451.272Z" fill="#546FBF"/>
<path d="M152.374 454.482C151.093 453.48 149.608 452.536 148.051 451.882C146.42 451.998 144.848 451.868 143.218 451.708C142.679 451.65 142.126 451.606 141.587 451.606C140.903 451.911 140.248 452.318 139.651 452.826C139.578 452.884 139.549 452.957 139.534 453.044C139.476 453.117 139.418 453.189 139.36 453.247C139.069 453.61 138.836 454.003 138.69 454.453C138.37 455.44 138.734 456.326 139.272 457.154C139.796 457.982 140.321 458.737 141.136 459.303C141.5 459.55 141.922 459.797 142.359 459.884C142.737 459.957 143.305 460.015 143.611 459.739C143.669 459.695 143.683 459.623 143.683 459.55C145.78 458.417 147.978 457.996 150.336 457.691C151.21 457.575 152.651 457.473 153.248 456.718C153.859 455.919 152.971 454.946 152.374 454.482Z" fill="#2B3D89"/>
<path d="M139.374 441.368C135.152 442.617 131.236 444.926 126.942 445.986C123.171 447.206 119.342 448.121 115.514 449.108C113.083 449.747 110.651 450.546 108.613 452.056C107.696 452.739 107.856 454.162 107.944 455.164C108.089 456.834 110.331 457.662 111.67 458.112C113.534 458.737 115.528 459.013 117.479 458.722C120.114 458.33 122.225 456.994 124.438 455.614C126.461 454.351 128.528 453.146 130.668 452.086C132.75 451.054 134.948 450.343 137.074 449.384C139.097 448.469 140.626 447.061 140.83 444.766C140.888 444.171 140.932 443.576 140.83 442.98C140.742 442.414 140.51 441.862 140.102 441.47C140.015 441.383 139.913 441.31 139.782 441.296C139.68 441.281 139.592 441.31 139.505 441.339C139.461 441.339 139.418 441.354 139.374 441.368Z" fill="#31394C"/>
<path d="M134.599 438.013C133.929 437.97 133.245 437.984 132.575 438.028C130.93 438.144 129.285 438.42 127.64 438.58C125.879 438.754 124.19 438.594 122.429 438.435C121.89 438.377 121.337 438.333 120.798 438.333C116.402 438.246 111.947 441.078 109.792 444.868C109.778 444.868 109.763 444.853 109.749 444.853C107.944 445.609 108.672 448.077 108.526 449.588C108.409 450.662 107.9 451.766 107.987 452.855C108.06 453.741 108.686 454.322 109.37 454.816C112.005 456.66 115.616 457.357 118.746 456.471C121.177 455.789 123.229 454.336 125.413 453.102C128.121 451.577 130.872 450.009 133.769 448.862C135.269 448.266 136.87 447.801 138.224 446.887C139.985 445.71 141.354 443.663 140.408 441.542C139.316 439.03 137.059 438.159 134.599 438.013Z" fill="#546FBF"/>
<path d="M131.396 443.706C132.008 442.922 131.12 441.964 130.523 441.484C129.096 440.352 127.393 439.321 125.631 438.653C124.569 438.638 123.521 438.551 122.443 438.449C121.905 438.391 121.351 438.348 120.813 438.348C120.667 438.348 120.522 438.377 120.376 438.377C119.444 438.682 118.585 439.175 117.799 439.843C117.727 439.901 117.697 439.974 117.683 440.061C117.625 440.134 117.566 440.206 117.508 440.264C117.217 440.628 116.984 441.02 116.839 441.47C116.518 442.457 116.882 443.343 117.421 444.171C117.945 444.999 118.469 445.754 119.284 446.32C119.648 446.567 120.07 446.814 120.507 446.901C120.886 446.974 121.453 447.032 121.759 446.756C121.817 446.712 121.832 446.64 121.832 446.567C123.928 445.434 126.126 445.013 128.485 444.708C129.358 444.563 130.799 444.461 131.396 443.706Z" fill="#2B3D89"/>
<g opacity="0.3">
<path opacity="0.3" d="M50.2512 463.863C50.9646 463.456 52.1001 463.398 52.9153 463.776L77.7655 476.585L99.6022 460.552C99.6459 460.523 99.6896 460.494 99.7332 460.465C100.33 460.116 101.713 458.911 102.514 459.129C103.504 459.405 103.46 461.206 102.98 461.786L88.2762 479.663L124.423 484.79C124.642 484.833 125.311 483.86 125.486 483.933C126.025 484.165 125.864 485.603 125.777 486.009C125.733 486.285 125.515 486.532 125.195 486.706C124.787 486.939 124.19 487.084 123.55 487.04L86.3546 486.387L90.1979 502.565L90.1833 503.741C90.2415 504.104 90.0232 504.438 89.601 504.685C89.3826 504.816 89.106 504.903 88.8003 504.975C87.7376 505.164 86.6021 504.83 86.2818 504.22L74.6938 487.447L44.4718 495.318C43.642 495.55 42.6229 495.434 42.0406 494.999C41.3855 494.534 41.1526 492.936 41.8805 492.515C41.9242 492.486 42.5938 492.399 42.6375 492.37L69.3802 481.362L50.0329 465.388C49.4797 464.981 49.1739 463.311 49.7417 462.876C49.8436 462.847 50.193 463.892 50.2512 463.863Z" fill="#808080"/>
</g>
<path d="M123.885 476.483C126.039 475.248 127.786 476.25 127.786 478.705C127.786 481.173 126.068 484.165 123.914 485.399C121.774 486.634 120.027 485.646 120.027 483.178C120.027 480.723 121.745 477.717 123.885 476.483Z" fill="#1B1F2D"/>
<path d="M125.049 487.926L121.307 485.733L126.665 476.221L130.552 478.472L125.049 487.926Z" fill="#1B1F2D"/>
<path d="M127.83 478.777C129.984 477.543 131.731 478.545 131.731 480.999C131.731 483.468 130.014 486.459 127.859 487.694C125.719 488.928 123.972 487.941 123.972 485.472C123.957 483.003 125.69 480.012 127.83 478.777Z" fill="#1B1F2D"/>
<path d="M127.829 479.024C129.868 477.848 131.498 478.806 131.513 481.115C131.513 483.439 129.882 486.271 127.859 487.433C125.835 488.594 124.19 487.665 124.19 485.327C124.175 483.018 125.806 480.186 127.829 479.024Z" fill="#31394C"/>
<path d="M86.8936 495.086C89.0481 493.851 90.7951 494.853 90.7951 497.308C90.7951 499.776 89.0772 502.768 86.9227 504.002C84.7827 505.237 83.0357 504.249 83.0357 501.78C83.0212 499.312 84.739 496.32 86.8936 495.086Z" fill="#1B1F2D"/>
<path d="M88.0436 506.529L84.3022 504.336L89.6595 494.824L93.5465 497.075L88.0436 506.529Z" fill="#1B1F2D"/>
<path d="M90.824 497.38C92.9785 496.146 94.7255 497.148 94.7255 499.602C94.7255 502.071 93.0076 505.062 90.8531 506.297C88.7131 507.517 86.9662 506.529 86.9662 504.06C86.9516 501.606 88.684 498.6 90.824 497.38Z" fill="#1B1F2D"/>
<path d="M90.8241 497.627C92.8622 496.451 94.4927 497.409 94.5072 499.718C94.5072 502.042 92.8768 504.874 90.8532 506.036C88.8297 507.197 87.1847 506.268 87.1847 503.93C87.1701 501.621 88.8151 498.789 90.8241 497.627Z" fill="#31394C"/>
<path d="M41.4585 485.457C43.6131 484.223 45.36 485.225 45.36 487.679C45.36 490.148 43.6422 493.14 41.4876 494.374C39.3476 495.608 37.6007 494.621 37.6007 492.152C37.5861 489.683 39.3185 486.692 41.4585 485.457Z" fill="#1B1F2D"/>
<path d="M42.6229 496.901L38.8816 494.708L44.2389 485.196L48.1258 487.447L42.6229 496.901Z" fill="#1B1F2D"/>
<path d="M45.4036 487.752C47.5581 486.517 49.3051 487.52 49.3051 489.974C49.3051 492.443 47.5872 495.434 45.4327 496.668C43.2927 497.903 41.5457 496.915 41.5457 494.447C41.5312 491.978 43.2636 488.972 45.4036 487.752Z" fill="#1B1F2D"/>
<path d="M45.4035 487.999C47.4416 486.823 49.072 487.781 49.0866 490.09C49.0866 492.414 47.4561 495.245 45.4326 496.407C43.409 497.569 41.764 496.64 41.764 494.302C41.7495 491.993 43.3799 489.161 45.4035 487.999Z" fill="#31394C"/>
<path d="M48.4755 456.645C50.6301 455.411 52.377 456.413 52.377 458.867C52.377 461.336 50.6592 464.328 48.5046 465.562C46.3646 466.797 44.6177 465.809 44.6177 463.34C44.6177 460.886 46.3355 457.88 48.4755 456.645Z" fill="#1B1F2D"/>
<path d="M49.6398 468.089L45.8984 465.896L51.2557 456.384L55.1426 458.635L49.6398 468.089Z" fill="#1B1F2D"/>
<path d="M52.4204 458.94C54.575 457.706 56.3219 458.708 56.3219 461.162C56.3219 463.631 54.6041 466.622 52.4495 467.857C50.3095 469.091 48.5626 468.104 48.5626 465.635C48.548 463.166 50.2804 460.16 52.4204 458.94Z" fill="#1B1F2D"/>
<path d="M52.4203 459.187C54.4584 458.011 56.0889 458.969 56.1034 461.278C56.1034 463.602 54.473 466.433 52.4494 467.595C50.4259 468.757 48.7809 467.828 48.7809 465.49C48.7663 463.181 50.3968 460.349 52.4203 459.187Z" fill="#31394C"/>
<path d="M100.679 451.795C102.834 450.561 104.581 451.563 104.581 454.017C104.581 456.486 102.863 459.477 100.708 460.712C98.5685 461.946 96.8215 460.959 96.8215 458.49C96.8215 456.021 98.5394 453.015 100.679 451.795Z" fill="#1B1F2D"/>
<path d="M101.843 463.239L98.1021 461.046L103.459 451.519L107.346 453.785L101.843 463.239Z" fill="#1B1F2D"/>
<path d="M104.625 454.075C106.779 452.841 108.526 453.843 108.526 456.297C108.526 458.766 106.808 461.757 104.654 462.992C102.514 464.226 100.767 463.239 100.767 460.77C100.752 458.316 102.485 455.309 104.625 454.075Z" fill="#1B1F2D"/>
<path d="M104.624 454.336C106.662 453.16 108.293 454.119 108.307 456.428C108.307 458.751 106.677 461.583 104.653 462.745C102.63 463.907 100.985 462.977 100.985 460.639C100.97 458.33 102.601 455.498 104.624 454.336Z" fill="#31394C"/>
<path d="M50.2513 456.007C50.9646 455.6 52.1001 455.542 52.9153 455.919L77.7655 466.303L99.6022 452.695C99.6459 452.666 99.6896 452.637 99.7333 452.608C100.33 452.26 101.713 451.055 102.514 451.272C103.504 451.548 103.46 453.349 102.98 453.93L88.2763 469.396L124.423 476.948C124.642 476.991 125.311 476.018 125.486 476.091C126.025 476.323 125.865 477.761 125.777 478.167C125.734 478.443 125.515 478.69 125.195 478.865C124.787 479.097 124.19 479.242 123.55 479.198L86.3546 476.12L90.1979 494.723L90.1833 495.899C90.2416 496.262 90.0232 496.596 89.601 496.843C89.3827 496.974 89.1061 497.061 88.8003 497.133C87.7376 497.322 86.6021 496.988 86.2818 496.378L74.7375 477.194L44.5155 487.491C43.6857 487.723 42.6666 487.607 42.0843 487.171C41.4292 486.706 41.1963 485.109 41.9242 484.688C41.9679 484.659 42.6375 484.572 42.6812 484.543L69.4239 471.11L50.0766 457.546C49.5234 457.139 49.2176 455.469 49.7854 455.034C49.8436 455.005 50.193 456.05 50.2513 456.007Z" fill="#A6BFFF"/>
<path d="M50.2513 454.641C50.9646 454.235 52.1001 454.177 52.9154 454.554L77.7656 462.077L99.6023 451.417C99.6459 451.388 99.6896 451.359 99.7333 451.33C100.33 450.982 101.247 450.88 102.048 451.098C103.038 451.374 103.46 452.071 102.98 452.652L88.2909 465.17L124.438 475.626C125.311 475.786 125.908 476.294 125.792 476.846C125.748 477.122 125.53 477.369 125.209 477.543C124.802 477.775 124.205 477.92 123.564 477.877L86.3692 471.894L90.1979 494.621C90.2562 494.984 90.0378 495.318 89.6156 495.565C89.3972 495.696 89.1207 495.783 88.8149 495.855C87.7522 496.044 86.6167 495.71 86.2964 495.1L74.7084 472.954L44.4864 486.314C43.6566 486.547 42.6376 486.43 42.0552 485.995C41.4001 485.53 41.4875 484.862 42.2154 484.441C42.2591 484.412 42.3173 484.383 42.3755 484.354L69.4094 466.854L50.062 456.152C49.5088 455.745 49.4797 455.15 50.062 454.728C50.1348 454.699 50.1931 454.67 50.2513 454.641Z" fill="#CFDEFF"/>
<path d="M85.5686 454.801V466.39C85.5541 467.363 84.899 468.336 83.6179 469.076C81.0412 470.558 76.9213 470.558 74.3591 469.076C73.078 468.336 72.4375 467.363 72.4375 466.39V455.048L85.5686 454.801Z" fill="#A6BFFF"/>
<path d="M74.3734 452.376C76.9501 450.895 81.1137 450.895 83.6759 452.376C86.238 453.857 86.1944 456.253 83.6176 457.735C81.0409 459.216 76.921 459.216 74.3588 457.735C71.8112 456.253 71.8112 453.857 74.3734 452.376Z" fill="#CFDEFF"/>
<path d="M85.0295 444.302V454.917C85.015 455.803 84.4181 456.689 83.2389 457.372C80.8806 458.737 77.0955 458.737 74.7517 457.372C73.5871 456.689 72.9902 455.803 72.9902 454.917V444.52L85.0295 444.302Z" fill="#91AAF2"/>
<path d="M74.7663 442.08C77.1247 440.715 80.9534 440.715 83.2972 442.08C85.641 443.445 85.6119 445.638 83.2535 446.988C80.8952 448.353 77.1101 448.353 74.7663 446.988C72.408 445.638 72.408 443.43 74.7663 442.08Z" fill="#A6BFFF"/>
<path d="M55.361 416.927C66.3667 433.061 106.925 396.001 106.925 396.001C104.13 408.737 111.19 417.058 108.774 443.183C108.73 443.735 108.876 444.273 109.196 444.708C110.026 445.812 111.831 447.801 114.262 448.223C118.571 448.963 121.133 447.438 122.24 446.509C122.662 446.161 122.924 445.667 122.967 445.115C123.448 440.221 126.17 412.6 126.578 402.623C126.884 394.941 128.136 379.039 115.616 376.367C106.575 374.435 76.6008 386.155 76.6008 386.155C76.6008 386.155 43.2198 399.123 55.361 416.927Z" fill="#1B1F2D"/>
<path d="M131.935 411.917L94.2449 390.207C88.2762 386.765 78.7117 386.634 72.4955 389.902L31.5153 411.438C24.8623 414.938 24.644 420.95 31.0349 424.624L72.5537 448.542C78.9446 452.216 89.3534 452.086 95.3804 448.223L132.532 424.479C138.166 420.877 137.904 415.359 131.935 411.917Z" fill="#2B3D89"/>
<path d="M30.3796 412.106C30.7435 411.874 31.122 411.656 31.5151 411.438L72.4808 389.902C78.697 386.634 88.2615 386.765 94.2302 390.207L131.92 411.917C133.58 412.876 134.774 413.994 135.545 415.185C132.168 419.12 124.569 420.848 120.332 422.591C112.689 425.728 105.964 430.578 99.1361 435.138C95.7587 437.389 92.4395 439.959 88.4362 440.889C84.2144 441.862 79.716 441.673 75.6253 440.25C68.7103 437.854 63.353 432.19 57.1369 428.501C53.3664 426.265 49.3775 424.377 45.2431 422.867C41.8803 421.647 38.5902 420.122 35.3729 418.568C33.3203 417.581 31.1948 416.041 30.5543 413.747C30.4087 413.21 30.3505 412.658 30.3796 412.106Z" fill="#354D9B"/>
<path d="M96.4428 288.551C96.4719 287.665 94.4192 283.817 93.473 282.074C92.6286 276.382 91.6969 271.778 91.6969 271.778C85.2478 266.318 69.8893 289.989 69.8893 289.989L68.2297 311.758C76.4986 319.353 84.1851 315.054 84.1851 315.054C84.3598 305.179 90.8235 307.081 93.7496 302.783C95.0016 300.939 95.0016 295.987 94.5211 290.57C95.4237 289.974 96.4282 289.176 96.4428 288.551Z" fill="#F2C599"/>
<path d="M68.7687 306.936C76.7173 309.332 81.1866 305.731 83.4139 299.094C83.4139 299.094 83.938 298.31 80.8954 297.395C77.8528 296.48 76.6445 287.114 79.7745 287.84C82.9044 288.566 82.7588 292.85 84.0981 293.213C85.4374 293.576 86.1653 292.327 85.1754 289.335C84.1855 286.358 89.9504 285.661 88.1015 282.22C86.2527 278.778 87.5338 274.944 91.1441 273.245C94.7544 271.546 92.4252 257.677 89.6446 258.49C86.8641 259.289 86.3109 262.077 84.6659 258.882C83.0208 255.688 81.7106 253.277 79.2358 254.686C76.761 256.109 78.3332 257.968 75.4217 256.777C72.5101 255.6 71.9423 256.428 70.9379 258.476C69.9334 260.538 71.6221 261.743 68.2738 262.034C64.9255 262.324 66.0173 265.258 62.8583 268.031C59.6847 270.805 54.0071 272.127 54.5458 281.886C55.0844 291.644 61.5772 304.758 68.7687 306.936Z" fill="#31394C"/>
<path d="M97.2878 297.991C97.215 297.613 96.8365 297.628 96.5307 297.613C96.0795 297.584 95.6136 297.57 95.1623 297.555C93.8084 297.482 92.4837 297.381 91.1589 297.09C90.1981 296.873 89.2518 296.553 88.3347 296.19C87.8834 296.001 87.4321 295.812 86.9954 295.595C86.5878 295.406 86.1801 295.159 85.7434 295.057C85.4377 294.999 85.2048 295.203 85.132 295.493C85.001 296.074 85.758 296.335 86.1656 296.553C86.7625 296.873 87.3884 297.178 88.0144 297.439C90.4165 298.441 93.0369 299.065 95.6573 299.036C96.0503 299.036 96.458 298.949 96.8365 298.819C97.1131 298.717 97.3169 298.485 97.3169 298.18C97.3169 298.107 97.3023 298.049 97.2878 297.991Z" fill="#546FBF"/>
<path d="M101.35 297.962C101.292 297.395 100.971 296.756 100.418 296.597C100.2 296.538 99.9666 296.524 99.7336 296.538C99.0639 296.538 98.3941 296.582 97.7243 296.684C97.1273 296.785 96.3993 296.901 96.0062 297.424C95.7004 297.831 95.7587 298.412 95.9625 298.862C96.1955 299.399 96.676 299.545 97.2001 299.632C98.0738 299.777 99.1221 299.835 100.01 299.661C100.724 299.515 101.292 299.094 101.364 298.325C101.364 298.194 101.364 298.078 101.35 297.962Z" fill="#1B1F2D"/>
<path d="M81.1576 286.983C83.516 285.632 85.4231 286.721 85.4231 289.408C85.4376 292.109 83.5451 295.377 81.1868 296.727C78.8429 298.078 76.9359 296.989 76.9359 294.287C76.9213 291.615 78.8138 288.333 81.1576 286.983Z" fill="#1B1F2D"/>
<path d="M82.4091 299.501L78.3184 297.105L84.1852 286.692L88.436 289.161L82.4091 299.501Z" fill="#1B1F2D"/>
<path d="M85.4665 289.481C87.8248 288.13 89.7319 289.219 89.7319 291.906C89.7465 294.607 87.854 297.875 85.4956 299.225C83.1518 300.576 81.2447 299.486 81.2447 296.785C81.2302 294.113 83.1227 290.831 85.4665 289.481Z" fill="#1B1F2D"/>
<path d="M85.4667 289.757C87.6941 288.479 89.4847 289.51 89.4992 292.051C89.4992 294.593 87.7232 297.686 85.4958 298.964C83.283 300.242 81.4924 299.211 81.4779 296.669C81.4633 294.128 83.2539 291.035 85.4667 289.757Z" fill="#31394C"/>
<path d="M85.467 290.41C87.2867 289.306 88.7425 290.207 88.757 292.371C88.757 294.563 87.3012 297.206 85.4961 298.31C83.6909 299.399 82.2351 298.528 82.2206 296.335C82.206 294.171 83.6618 291.499 85.467 290.41Z" stroke="#546FBF" stroke-width="0.2" stroke-miterlimit="10"/>
<path d="M62.5673 344.389L61.883 351.636C67.6334 349.283 73.3692 346.901 79.0904 344.491C81.6962 343.387 84.3166 342.283 86.7915 340.904C88.1308 340.163 89.5283 339.481 90.6784 338.478C92.1196 337.23 92.4836 335.894 92.731 334.078C92.8475 333.207 93.3716 331.871 94.4925 332.074C95.2059 332.19 95.4388 333.221 96.0502 333.149C96.7636 333.062 97.4623 332.495 98.0301 332.089C98.6706 331.639 99.2821 331.159 100.025 330.898C100.796 330.622 101.64 330.404 102.456 330.564C102.645 330.593 102.849 330.666 102.98 330.796C103.111 330.941 103.169 331.174 103.038 331.334C103.649 331.145 104.29 331.116 104.916 331.246C105.207 331.305 105.513 331.406 105.717 331.624C105.92 331.842 106.008 332.19 105.848 332.437C106.284 332.365 106.75 332.321 107.187 332.423C107.624 332.524 108.046 332.8 108.206 333.207C108.453 333.802 108.119 334.456 107.813 335.022C108.06 334.935 108.337 334.848 108.584 334.935C108.861 335.022 109.05 335.298 109.094 335.589C109.138 335.879 109.079 336.169 108.963 336.431C108.817 336.765 108.614 337.084 108.366 337.346C108.104 337.607 107.798 337.825 107.493 338.043C106.182 338.958 104.93 339.916 103.577 340.773C101.742 341.935 99.8935 343.097 98.0592 344.258C94.1868 346.713 90.0815 348.978 86.3838 351.679C82.7444 354.322 78.9157 356.805 75.0724 359.173C69.6715 362.498 64.1249 366.027 58.2145 368.394C57.4138 368.714 56.5112 369.106 55.6377 369.106C48.7519 369.106 46.2334 362.353 47.1069 347.598L62.5673 344.389Z" fill="#F2C599"/>
<path d="M63.6153 350.096C63.6153 350.096 57.5156 353.683 45.6218 353.858C45.6218 353.858 45.8839 324.944 53.2647 318.38C60.6455 311.845 64.5179 329.838 63.6153 350.096Z" fill="#DB3E3E"/>
<path d="M135.895 387.186C126.854 385.254 95.264 393.663 95.264 393.663L50.2513 388.58C50.2513 388.58 46.4371 407.314 50.426 414.807C54.4294 422.315 65.4933 426.657 76.237 429.997C94.9146 435.792 127.801 409.071 127.801 409.071C127.772 409.216 127.743 409.361 127.713 409.492L131.935 411.917C137.904 415.359 138.166 420.877 132.532 424.479L128.762 426.89C130.101 434.093 131.615 442.995 130.348 456.689C130.305 457.154 130.407 457.648 130.654 458.04C131.28 459.042 132.736 460.857 135.152 461.278C139.432 462.004 142.606 460.552 144.105 459.623C144.702 459.26 145.066 458.65 145.11 457.953C145.445 452.42 147.075 425.481 147.468 415.678C147.759 407.996 148.4 389.858 135.895 387.186Z" fill="#31394C"/>
<path d="M50.2365 388.566C50.2365 388.566 48.8535 395.391 48.6206 402.449L70.632 390.875L50.2365 388.566Z" fill="#31394C"/>
<path d="M98.6994 392.777L94.2447 390.207C88.276 386.765 78.7115 386.634 72.4953 389.902L70.6465 390.875L95.2638 393.663C95.2638 393.648 96.5594 393.3 98.6994 392.777Z" fill="#2B3D89"/>
<path d="M127.713 409.492L131.44 411.641C131.542 410.465 131.862 409.332 132.022 408.17C132.11 407.546 132.284 406.951 131.804 406.442C130.741 405.31 128.601 406.544 127.524 406.965C122.545 408.926 117.741 411.264 113.068 413.849C108.249 416.506 103.445 419.048 97.9717 420.079C92.1631 421.168 85.8159 421.502 80.0073 420.296C74.3152 419.106 66.1774 415.649 63.0038 410.683C59.0587 404.525 59.7283 390.816 59.7283 390.816C59.6119 390.395 59.4954 390.003 59.3498 389.611L50.2366 388.58C50.2366 388.58 46.4225 407.314 50.4113 414.807C54.4147 422.315 65.4786 426.657 76.2223 429.997C94.9 435.792 127.786 409.071 127.786 409.071C127.757 409.201 127.742 409.347 127.713 409.492Z" fill="#252C3A"/>
<path d="M134.963 441.063C135.036 435.225 133.624 429.881 132.532 424.479C132.532 424.479 132.532 424.479 132.518 424.493L128.747 426.904C130.086 434.107 131.6 443.009 130.334 456.704C130.29 457.168 130.392 457.662 130.64 458.054C131.266 459.056 132.721 460.871 135.138 461.293C135.429 461.336 135.706 461.365 135.982 461.394C135.822 460.479 135.691 459.564 135.633 458.635C135.24 453.015 134.905 446.654 134.963 441.063Z" fill="#252C3A"/>
<path d="M98.1753 327.369C98.1753 327.369 90.9401 318.249 84.1707 315.054C84.1707 315.054 79.3957 314.575 74.9701 314.241C71.0832 313.951 68.2153 311.758 68.2153 311.758C68.2153 311.758 59.4078 313.791 55.4336 316.855C51.27 320.064 47.2957 335.763 48.9262 348.484C50.5567 361.206 49.5668 379.068 48.9262 383.802C47.6888 392.879 56.3944 401.316 67.8077 402.115C82.7877 403.175 99.4564 399.544 98.9177 392.124C97.7386 375.989 98.1753 327.369 98.1753 327.369Z" fill="#F24B4B"/>
<path d="M105.105 363.515L105.396 370.936C111.147 368.583 116.882 366.201 122.604 363.791C125.209 362.687 127.83 361.583 130.305 360.204C131.644 359.463 133.041 358.781 134.192 357.779C135.633 356.53 135.997 355.194 136.244 353.378C136.361 352.507 136.885 351.171 138.006 351.374C138.719 351.49 138.952 352.522 139.563 352.449C140.277 352.362 140.975 351.795 141.543 351.389C142.184 350.939 142.795 350.459 143.538 350.198C144.309 349.922 145.154 349.704 145.969 349.864C146.158 349.893 146.362 349.966 146.493 350.096C146.624 350.242 146.682 350.474 146.551 350.634C147.163 350.445 147.803 350.416 148.429 350.547C148.72 350.605 149.026 350.706 149.23 350.924C149.434 351.142 149.521 351.49 149.361 351.737C149.798 351.665 150.263 351.621 150.7 351.723C151.137 351.824 151.559 352.1 151.719 352.507C151.967 353.102 151.632 353.756 151.326 354.322C151.574 354.235 151.85 354.148 152.098 354.235C152.374 354.322 152.564 354.598 152.607 354.889C152.651 355.179 152.578 355.47 152.476 355.731C152.331 356.065 152.127 356.384 151.879 356.646C151.617 356.907 151.312 357.125 151.006 357.343C149.696 358.258 148.444 359.216 147.09 360.073C145.255 361.235 143.407 362.397 141.572 363.558C137.7 366.013 133.595 368.278 129.897 370.979C126.258 373.622 122.429 376.106 118.586 378.473C113.185 381.798 107.638 385.327 101.728 387.694C100.927 388.014 100.024 388.406 99.1509 388.406C92.265 388.406 89.368 380.883 90.2415 366.114L105.105 363.515Z" fill="#F2C599"/>
<path d="M107.493 364.139C107.493 364.139 99.879 368.568 88.0143 369.527C88.0143 369.527 86.2383 336.358 93.2551 328.473C100.243 320.602 107.274 341.194 107.493 364.139Z" fill="#DB3E3E"/>
<path d="M22.5331 349.486C22.9553 349.733 23.3921 349.646 23.7123 349.399C24.4693 356.907 27.4828 364.343 30.2925 371.27C37.0036 387.81 47.3397 402.928 58.7967 416.405C61.155 419.178 63.2222 422.852 66.4395 424.697C70.0498 426.773 74.883 426.222 77.6781 423.056C79.6289 420.848 80.5169 417.915 80.9391 415.011C82.0746 407.314 82.1911 399.414 81.5214 391.659C80.91 384.528 81.8271 376.962 79.2504 370.137C77.0813 364.401 72.5392 359.725 67.6041 356.225C62.4361 352.565 56.5984 350.024 50.95 347.221C45.8984 344.709 40.7886 341.165 35.0674 340.425C31.4425 339.945 25.896 339.829 22.9262 342.371C20.7716 344.2 19.7672 347.802 22.5331 349.486Z" fill="#405DAD"/>
<path d="M28.924 343.881L66.5414 365.548C71.3891 368.336 75.3052 375.103 75.2906 380.68L75.1742 420.18C75.1596 425.742 71.2144 427.979 66.3667 425.19L28.7493 403.509C23.9015 400.721 19.9855 393.939 20 388.377L20.1165 348.876C20.1311 343.314 24.0762 341.078 28.924 343.881Z" fill="#2B3D89"/>
<path d="M40.7159 437.97L51.4887 444.142L50.2368 377.369C50.2368 376.991 50.0329 376.643 49.6981 376.454L39.9735 370.805C39.2456 370.384 38.343 370.907 38.343 371.734V433.904C38.3576 435.574 39.2456 437.128 40.7159 437.97Z" fill="#CFDEFF"/>
<path d="M59.1024 440.802L51.5032 436.431L50.8772 441.717L53.8907 444.142L59.1024 440.802Z" fill="#91AAF2"/>
<path d="M59.1024 440.802L55.8123 442.69C53.4394 444.055 51.5178 442.951 51.5032 440.235L51.3867 377.093C51.3867 376.468 51.0519 375.873 50.4987 375.568L41.0944 370.267C40.7304 370.064 40.2791 370.05 39.9006 370.253L38.998 370.718C38.998 370.718 39.5076 370.529 39.9734 370.776L49.3195 376.251C49.8582 376.57 50.1784 377.136 50.193 377.761L50.3095 440.918C50.324 444.389 52.7989 445.797 55.8269 444.055L60.3107 441.47L59.1024 440.802Z" fill="#A6BFFF"/>
<path d="M106.401 442.08L105.44 441.789L104.231 415.199L108.294 414.706L106.401 442.08Z" fill="#91AAF2"/>
<path d="M106.401 442.08L106.255 414.444L114.087 410.668L112.413 438.609L106.401 442.08Z" fill="#A6BFFF"/>
<path d="M124.743 407.575V405.281L123.841 405.586L122.662 402.986C122.574 402.783 122.385 402.608 122.152 402.463C121.424 402.042 120.172 401.999 119.371 402.463L100.49 413.413L93.4731 415.766V417.987C93.4877 418.278 93.6915 418.554 94.0555 418.757C94.2884 418.888 94.5941 418.99 94.958 419.048L102.907 420.238C103.547 420.616 108.977 418.075 115.004 414.575C121.031 411.089 125.398 407.938 124.743 407.575Z" fill="#A6BFFF"/>
<path d="M122.153 400.183C121.425 399.762 120.173 399.719 119.372 400.183L94.0415 414.865C93.2262 415.33 93.3281 416.056 94.056 416.477C94.2889 416.608 94.5947 416.71 94.9586 416.768L102.907 417.958C103.548 418.336 108.978 415.795 115.005 412.295C121.046 408.795 125.414 405.658 124.758 405.281L122.677 400.692C122.575 400.488 122.386 400.314 122.153 400.183Z" fill="#CFDEFF"/>
<path d="M65.8137 312.397L68.4632 308.606C68.4632 308.606 75.1307 311.976 84.637 311.38L86.5732 316.361C86.5586 316.376 71.8989 317.988 65.8137 312.397Z" fill="#DB3E3E"/>
<path d="M79.4541 291.485C79.4541 291.485 80.939 280.55 76.1786 275.467C71.4182 270.384 62.4797 268.075 59.8884 270.239C59.8884 270.239 60.8929 267.146 64.9109 265.388C64.9109 265.388 83.6468 259.681 84.6367 288.072L79.4541 291.485Z" fill="#1B1F2D"/>
</g>
<defs>
<filter id="filter0_d_89_4586" x="0" y="0" width="285" height="540" filterUnits="userSpaceOnUse" color-interpolation-filters="sRGB">
<feFlood flood-opacity="0" result="BackgroundImageFix"/>
<feColorMatrix in="SourceAlpha" type="matrix" values="0 0 0 0 0 0 0 0 0 0 0 0 0 0 0 0 0 0 127 0" result="hardAlpha"/>
<feOffset dy="10"/>
<feGaussianBlur stdDeviation="10"/>
<feComposite in2="hardAlpha" operator="out"/>
<feColorMatrix type="matrix" values="0 0 0 0 0 0 0 0 0 0 0 0 0 0 0 0 0 0 0.25 0"/>
<feBlend mode="normal" in2="BackgroundImageFix" result="effect1_dropShadow_89_4586"/>
<feBlend mode="normal" in="SourceGraphic" in2="effect1_dropShadow_89_4586" result="shape"/>
</filter>
</defs>
</svg>
