<svg width="6" height="9" viewBox="0 0 6 9" fill="none" xmlns="http://www.w3.org/2000/svg">
<path d="M5.49831 4.50627C5.49864 4.63956 5.44054 4.76872 5.33411 4.87135L1.76453 8.29393C1.64335 8.41042 1.46921 8.48368 1.28044 8.49759C1.09166 8.51149 0.903697 8.46491 0.757904 8.36809C0.61211 8.27126 0.520426 8.13213 0.503021 7.98129C0.485616 7.83045 0.543915 7.68027 0.665094 7.56378L3.86344 4.50627L0.779321 1.44877C0.720019 1.39042 0.675734 1.32328 0.649011 1.25121C0.622287 1.17915 0.613653 1.10357 0.623605 1.02883C0.633556 0.954085 0.661897 0.88165 0.706997 0.815688C0.752098 0.749725 0.81307 0.691535 0.886409 0.644461C0.959815 0.592221 1.04593 0.552657 1.13936 0.528247C1.2328 0.503837 1.33153 0.495108 1.42938 0.502604C1.52724 0.510102 1.6221 0.533664 1.70802 0.571816C1.79395 0.609968 1.86908 0.661889 1.92873 0.724322L5.37694 4.1469C5.46655 4.25248 5.50928 4.37901 5.49831 4.50627Z" fill="#616362"/>
</svg>
