<svg width="14" height="14" viewBox="0 0 14 14" fill="none" xmlns="http://www.w3.org/2000/svg">
<path d="M5.44444 7.27778H0.777778C0.704106 7.27778 0.633452 7.24851 0.581359 7.19642C0.529266 7.14433 0.5 7.07367 0.5 7V0.777778C0.5 0.704106 0.529266 0.633453 0.581359 0.581359C0.633453 0.529266 0.704106 0.5 0.777778 0.5H5.44444C5.51812 0.5 5.58877 0.529266 5.64086 0.581359C5.69296 0.633453 5.72222 0.704107 5.72222 0.777778V7C5.72222 7.07367 5.69296 7.14433 5.64086 7.19642C5.58877 7.24851 5.51812 7.27778 5.44444 7.27778ZM0.581359 13.4186C0.529266 13.3665 0.5 13.2959 0.5 13.2222V10.1111C0.5 10.0374 0.529266 9.96679 0.581359 9.91469C0.633452 9.8626 0.704105 9.83333 0.777778 9.83333H5.44444C5.51812 9.83333 5.58877 9.8626 5.64086 9.91469C5.69296 9.96679 5.72222 10.0374 5.72222 10.1111V13.2222C5.72222 13.2959 5.69296 13.3665 5.64086 13.4186C5.58877 13.4707 5.51812 13.5 5.44444 13.5H0.777778C0.704105 13.5 0.633452 13.4707 0.581359 13.4186ZM8.35914 13.4186C8.30704 13.3665 8.27778 13.2959 8.27778 13.2222V7.77778C8.27778 7.70411 8.30704 7.63345 8.35914 7.58136C8.41123 7.52927 8.48188 7.5 8.55556 7.5H13.2222C13.2959 7.5 13.3665 7.52927 13.4186 7.58136C13.4707 7.63345 13.5 7.70411 13.5 7.77778V13.2222C13.5 13.2959 13.4707 13.3665 13.4186 13.4186C13.3665 13.4707 13.2959 13.5 13.2222 13.5H8.55556C8.48188 13.5 8.41123 13.4707 8.35914 13.4186ZM13.2222 4.94444H8.55556C8.48188 4.94444 8.41123 4.91518 8.35914 4.86309C8.30704 4.81099 8.27778 4.74034 8.27778 4.66667V0.777778C8.27778 0.704107 8.30704 0.633453 8.35914 0.581359C8.41123 0.529266 8.48188 0.5 8.55556 0.5H13.2222C13.2959 0.5 13.3665 0.529266 13.4186 0.581359C13.4707 0.633452 13.5 0.704105 13.5 0.777778V4.66667C13.5 4.74034 13.4707 4.81099 13.4186 4.86309C13.3665 4.91518 13.2959 4.94444 13.2222 4.94444Z" stroke="#0080FF"/>
</svg>
