<svg width="100" height="100" viewBox="0 0 100 100" fill="none" xmlns="http://www.w3.org/2000/svg">
<path d="M53.8869 51.9357C55.9252 50.5491 57.3125 48.2839 57.4726 45.6907C57.4833 45.4684 57.6647 45.2884 57.8995 45.2884C58.6145 45.2884 59.1908 44.7169 59.1908 44.0077V41.2451L59.2335 37.117H59.1908V35.8468C59.1908 32.756 56.6615 30.2474 53.5454 30.2474H44.9225C41.8063 30.2474 39.2771 32.756 39.2771 35.8468V41.2451V44.0077C39.2771 44.7169 39.8534 45.2884 40.5684 45.2884C40.7925 45.2884 40.9739 45.4684 40.9953 45.6907C41.1553 48.2839 42.5427 50.5491 44.581 51.9357V56.339L39.2984 62.1289H59.2335L53.8975 56.339V51.9357H53.8869Z" fill="#254493"/>
<path d="M64.7827 59.5038L56.5654 57.1116L52.9476 61.2291L49.2445 65.4419L41.9236 57.1116L33.6956 59.5038C30.9103 60.3082 29 62.8486 29 65.7171V73.0947C29 74.1426 29.8644 75 30.9209 75H34.9549H36.513H61.9653H63.5234H67.5574C68.6139 75 69.4783 74.1426 69.4783 73.0947V65.7171C69.4783 62.8486 67.5681 60.3082 64.7827 59.5038Z" fill="#254493"/>
<path d="M35.2003 40.0913L34.3999 39.2234H32.6924L31.892 40.0913L30.8355 46.2094C30.7395 46.7915 31.1877 47.3102 31.7746 47.3102H35.2963C35.8833 47.3102 36.3315 46.7809 36.2355 46.2094L35.2003 40.0913Z" fill="#254493"/>
<path d="M34.3359 38.6094V30.8719C34.3359 30.4485 33.9838 30.0992 33.5569 30.0992C33.13 30.0992 32.7778 30.4485 32.7778 30.8719V38.6094H34.3359Z" fill="#263773"/>
<path d="M65.2737 30.0146L50.9521 25.4948L49.5007 25.0397C49.33 24.9868 49.1379 24.9868 48.9671 25.0397L33.1941 30.0146C32.3084 30.2898 32.4044 31.5599 33.3115 31.7081L38.6368 32.6078V36.4713C38.6368 36.8947 38.9783 37.2334 39.4052 37.2334H52.6489H53.3959H59.0734C59.5002 37.2334 59.8417 36.8947 59.8417 36.4713V32.6078L65.167 31.7081C66.0741 31.5599 66.1595 30.2898 65.2737 30.0146Z" fill="#263773"/>
<path d="M35.2004 40.0913H31.9028V37.9426C31.9028 37.4874 32.2763 37.1169 32.7352 37.1169H34.368C34.8269 37.1169 35.2004 37.4874 35.2004 37.9426V40.0913Z" fill="#263773"/>
<path d="M53.8867 53.7563C53.8867 56.7518 53.0117 59.6838 51.3575 62.1924L49.2231 65.4419L61.1116 58.4347L53.8867 53.7563Z" fill="white"/>
<path d="M44.581 53.7563C44.581 56.7518 45.4561 59.6838 47.1103 62.1924L49.2446 65.4419L37.3562 58.4347L44.581 53.7563Z" fill="white"/>
<path d="M53.2038 58.2866C51.9765 58.5512 50.6425 58.6994 49.2338 58.6994C47.8252 58.6994 46.4912 58.5512 45.2639 58.2866C45.6908 59.6626 46.2991 60.9752 47.0995 62.1924L49.2338 65.442L51.3682 62.1924C52.1686 60.9752 52.7769 59.6626 53.2038 58.2866Z" fill="#263773"/>
<g filter="url(#filter0_b_219_1719)">
<rect width="100" height="100" rx="10" fill="#F5F5F5" fill-opacity="0.9"/>
</g>
<path d="M54.2371 70.2218C51.6182 70.6836 48.934 70.625 46.3378 70.0494C43.7416 69.4738 41.2841 68.3925 39.1058 66.8673C36.9274 65.342 35.0709 63.4025 33.642 61.1597C32.2132 58.9169 31.2401 56.4147 30.7783 53.7958C30.3166 51.1769 30.3751 48.4928 30.9507 45.8965C31.5263 43.3003 32.6076 40.8428 34.1329 38.6645C35.6582 36.4862 37.5976 34.6296 39.8404 33.2007C42.0832 31.7719 44.5855 30.7988 47.2043 30.3371C49.8232 29.8753 52.5074 29.9339 55.1036 30.5094C57.6998 31.085 60.1573 32.1663 62.3356 33.6916C64.514 35.2169 66.3706 37.1563 67.7994 39.3991C69.2282 41.6419 70.2013 44.1442 70.6631 46.763C71.1248 49.3819 71.0663 52.0661 70.4907 54.6623C69.9151 57.2586 68.8338 59.716 67.3085 61.8943C65.7832 64.0727 63.8438 65.9293 61.601 67.3581C59.3582 68.7869 56.8559 69.76 54.2371 70.2218L54.2371 70.2218Z" stroke="#616362" stroke-width="3" stroke-linecap="round"/>
<path d="M50.9412 48.9559L50.9412 60.2059" stroke="#616362" stroke-width="3" stroke-linecap="round"/>
<path d="M50.9412 43.1103L50.9412 41.2353" stroke="#616362" stroke-width="3" stroke-linecap="round"/>
<defs>
<filter id="filter0_b_219_1719" x="-5" y="-5" width="110" height="110" filterUnits="userSpaceOnUse" color-interpolation-filters="sRGB">
<feFlood flood-opacity="0" result="BackgroundImageFix"/>
<feGaussianBlur in="BackgroundImageFix" stdDeviation="2.5"/>
<feComposite in2="SourceAlpha" operator="in" result="effect1_backgroundBlur_219_1719"/>
<feBlend mode="normal" in="SourceGraphic" in2="effect1_backgroundBlur_219_1719" result="shape"/>
</filter>
</defs>
</svg>
