<svg width="16" height="18" viewBox="0 0 16 18" fill="none" xmlns="http://www.w3.org/2000/svg">
<path d="M3.40039 5.10555V5.10555C3.40039 3.443 3.40039 2.61173 3.83059 2.06678C3.98644 1.86936 4.17813 1.7031 4.39561 1.57674C4.99592 1.22793 5.81884 1.34549 7.46467 1.58061L9.44892 1.86408C11.9051 2.21495 13.1331 2.39039 13.8668 3.23628C14.6004 4.08217 14.6004 5.32271 14.6004 7.80377V10.1962C14.6004 12.6773 14.6004 13.9178 13.8668 14.7637C13.1331 15.6096 11.905 15.785 9.44892 16.1359L7.30794 16.4418C5.80964 16.6558 5.06049 16.7628 4.49895 16.4793C4.20361 16.3302 3.94988 16.1101 3.76048 15.8388C3.40039 15.323 3.40039 14.5663 3.40039 13.0528V13.0528" stroke="#616362" stroke-linecap="round"/>
<path d="M7.00918 5.31235C6.83667 5.09672 6.87163 4.78207 7.08726 4.60957C7.30289 4.43706 7.61754 4.47202 7.79004 4.68765L7.00918 5.31235ZM10.5996 9L10.99 8.68765L11.2399 9L10.99 9.31235L10.5996 9ZM7.79004 13.3123C7.61754 13.528 7.30289 13.5629 7.08726 13.3904C6.87163 13.2179 6.83667 12.9033 7.00918 12.6877L7.79004 13.3123ZM0.99961 9.5C0.723468 9.5 0.49961 9.27614 0.49961 9C0.49961 8.72386 0.723468 8.5 0.99961 8.5V9.5ZM7.79004 4.68765L10.99 8.68765L10.2092 9.31235L7.00918 5.31235L7.79004 4.68765ZM10.99 9.31235L7.79004 13.3123L7.00918 12.6877L10.2092 8.68765L10.99 9.31235ZM10.5996 9.5H0.99961V8.5H10.5996V9.5Z" fill="#616362"/>
</svg>
