<svg width="13" height="11" viewBox="0 0 13 11" fill="none" xmlns="http://www.w3.org/2000/svg">
<path d="M6.46916 8.84115C6.17655 9.13433 6.17701 9.6092 6.47018 9.90181C6.76336 10.1944 7.23823 10.194 7.53084 9.90079L6.46916 8.84115ZM11 5.36327L11.5308 5.89309L12.0596 5.36327L11.5308 4.83345L11 5.36327ZM7.53084 0.825747C7.23823 0.532572 6.76336 0.532116 6.47018 0.824727C6.17701 1.11734 6.17655 1.59221 6.46916 1.88539L7.53084 0.825747ZM1 4.61327C0.585787 4.61327 0.25 4.94905 0.25 5.36327C0.25 5.77748 0.585787 6.11327 1 6.11327L1 4.61327ZM7.53084 9.90079L11.5308 5.89309L10.4692 4.83345L6.46916 8.84115L7.53084 9.90079ZM11.5308 4.83345L7.53084 0.825747L6.46916 1.88539L10.4692 5.89309L11.5308 4.83345ZM11 4.61327L1 4.61327L1 6.11327L11 6.11327L11 4.61327Z" fill="#574DFC"/>
</svg>
