<svg width="24" height="14" viewBox="0 0 24 14" fill="none" xmlns="http://www.w3.org/2000/svg">
<path d="M1 8C0.447716 8 0 7.55228 0 7C0 6.44772 0.447716 6 1 6V8ZM23 7L23.7071 6.29289C24.0976 6.68342 24.0976 7.31658 23.7071 7.70711L23 7ZM16.2929 1.70711C15.9024 1.31658 15.9024 0.683417 16.2929 0.292893C16.6834 -0.0976311 17.3166 -0.0976311 17.7071 0.292893L16.2929 1.70711ZM17.7071 13.7071C17.3166 14.0976 16.6834 14.0976 16.2929 13.7071C15.9024 13.3166 15.9024 12.6834 16.2929 12.2929L17.7071 13.7071ZM1 6H23V8H1V6ZM22.2929 7.70711L16.2929 1.70711L17.7071 0.292893L23.7071 6.29289L22.2929 7.70711ZM23.7071 7.70711L17.7071 13.7071L16.2929 12.2929L22.2929 6.29289L23.7071 7.70711Z" fill="white"/>
</svg>
