<svg width="36" height="40" viewBox="0 0 36 40" fill="none" xmlns="http://www.w3.org/2000/svg">
<path fill-rule="evenodd" clip-rule="evenodd" d="M18 36.0262C27.9411 36.0262 36 27.9674 36 18.0262C36 8.08512 27.9411 0.0262451 18 0.0262451C8.05887 0.0262451 0 8.08512 0 18.0262C0 23.6237 2.55498 28.6245 6.56234 31.9258C6.56872 31.9311 6.56303 31.9413 6.55521 31.9386V31.9386C6.55039 31.937 6.54538 31.9406 6.54538 31.9457V36.1003C6.54538 38.3178 8.88267 39.7571 10.8628 38.7589L15.4046 36.4694C16.0681 36.135 16.8113 36.0028 17.5541 36.0208C17.7023 36.0244 17.8509 36.0262 18 36.0262Z" fill="#43A635"/>
<path fill-rule="evenodd" clip-rule="evenodd" d="M23.9275 12.7953C24.4829 13.2212 24.589 14.0163 24.1645 14.5729L17.8653 22.8319C17.6432 23.1232 17.3066 23.3041 16.9417 23.3284C16.5769 23.3527 16.2193 23.2179 15.9608 22.9587L11.9627 18.9501C11.4683 18.4543 11.4683 17.6519 11.9627 17.1562V17.1562C12.459 16.6586 13.265 16.6586 13.7613 17.1562L16.7302 20.1329L22.1453 13.0329C22.5713 12.4743 23.37 12.3678 23.9275 12.7953V12.7953Z" fill="white"/>
</svg>
