<svg width="78" height="78" viewBox="0 0 78 78" fill="none" xmlns="http://www.w3.org/2000/svg">
<path fill-rule="evenodd" clip-rule="evenodd" d="M38.9997 68.64C57.9541 68.64 73.3197 53.2744 73.3197 34.32C73.3197 15.3656 57.9541 0 38.9997 0C20.0453 0 4.67969 15.3656 4.67969 34.32C4.67969 44.9926 9.55126 54.5274 17.192 60.822C17.2042 60.832 17.1934 60.8515 17.1784 60.8464V60.8464C17.1693 60.8433 17.1597 60.8501 17.1597 60.8598V71.5042C17.1597 74.4834 20.2999 76.4171 22.9603 75.076L34.9717 69.0212C35.6351 68.6867 36.3783 68.5494 37.1202 68.5894C37.7425 68.623 38.3691 68.64 38.9997 68.64Z" fill="#F88F01"/>
<path fill-rule="evenodd" clip-rule="evenodd" d="M35.8691 36.5652C35.8691 38.222 37.2123 39.5652 38.8691 39.5652H39.13C40.7869 39.5652 42.13 38.222 42.13 36.5652L42.13 23.0869C42.13 21.4301 40.7869 20.0869 39.13 20.0869H38.8691C37.2123 20.0869 35.8691 21.4301 35.8691 23.0869V36.5652ZM38.9996 47.913C40.7285 47.913 42.13 46.5115 42.13 44.7826C42.13 43.0537 40.7285 41.6521 38.9996 41.6521C37.2707 41.6521 35.8691 43.0537 35.8691 44.7826C35.8691 46.5115 37.2707 47.913 38.9996 47.913Z" fill="white"/>
</svg>
