<svg width="95" height="83" viewBox="0 0 95 83" fill="none" xmlns="http://www.w3.org/2000/svg">
<circle cx="76.8686" cy="9.12738" r="9.12738" fill="#FFE8D2"/>
<circle cx="60.4439" cy="35.7782" r="3.45176" fill="#FFE8D2"/>
<circle cx="17.9496" cy="5.62027" r="2.30117" fill="#FFE8D2"/>
<path d="M73.4427 60.6871C99.2155 83.7701 101.396 123.376 78.3129 149.149C55.2298 174.921 15.6243 177.102 -10.1486 154.019C-35.9214 130.936 -38.1019 91.3302 -15.0188 65.5573C-3.94771 53.1961 10.9242 46.262 26.2477 44.9394C29.8143 44.6316 32.7544 41.7763 32.7476 38.1965L32.745 36.793C32.7417 35.0772 31.6436 33.5957 30.3493 32.4692C26.6314 29.2334 26.2405 23.5963 29.4763 19.8784C32.7121 16.1605 38.3492 15.7696 42.0671 19.0054C45.7851 22.2412 46.1759 27.8783 42.9401 31.5962C42.6646 31.9129 42.3716 32.2054 42.0638 32.4736C39.8659 34.389 37.5167 36.7286 37.5223 39.644C37.528 42.6694 39.8398 45.1649 42.8172 45.7014C53.8474 47.6891 64.4812 52.6609 73.4427 60.6871Z" fill="#FFE8D2"/>
</svg>
